<?xml version="1.0" encoding="iso-8859-1"?>
<!-- Generator: Adobe Illustrator 16.0.0, SVG Export Plug-In . SVG Version: 6.00 Build 0)  -->
<!DOCTYPE svg PUBLIC "-//W3C//DTD SVG 1.1//EN" "http://www.w3.org/Graphics/SVG/1.1/DTD/svg11.dtd">
<svg version="1.1" id="Layer_1" xmlns="http://www.w3.org/2000/svg" xmlns:xlink="http://www.w3.org/1999/xlink" x="0px" y="0px"
	 width="580px" height="386px" viewBox="0 0 580 386" style="enable-background:new 0 0 580 386;" xml:space="preserve">
<g>
	<ellipse style="fill:#728758;" cx="278.43" cy="238.919" rx="116.853" ry="52.772"/>
	<ellipse style="fill:#C6BFBD;" cx="278.43" cy="238.92" rx="96.357" ry="43.516"/>
	<path style="fill:#E0E0E0;" d="M388.56,221.234c4.269,5.42,6.63,11.248,6.721,17.32v0.002v0.008c0,0.051,0.002,0.105,0.002,0.154
		v0.004v0.006c0,0.035,0,0.07,0,0.105v0.006v0.025v0.016v0.039c0,29.145-52.316,52.771-116.853,52.771h-0.099h-0.02h-0.076h-0.041
		h-0.058h-0.039h-0.037c-0.036,0-0.065,0-0.101,0h-0.021h-0.037h-0.034c-0.019,0-0.047,0-0.067,0h-0.06h-0.017
		c-0.027,0-0.052,0-0.08,0h-0.042h-0.046c-0.008,0-0.009,0-0.017,0h-0.034h-0.033c-0.016-0.002-0.035-0.002-0.05-0.002h-0.015
		h-0.049c-0.008,0-0.012,0-0.02,0h-0.027h-0.072h-0.026h-0.09l-0.004-0.002c-0.04,0-0.081,0-0.121,0c-0.056,0-0.111,0-0.168,0
		c-0.004,0-0.012,0-0.016,0h-0.015h-0.035c-0.027,0-0.053-0.002-0.081-0.002h-0.067h-0.011c-0.012,0-0.03,0-0.042,0h-0.046h-0.009
		c-0.02-0.002-0.035-0.002-0.055-0.002h-0.034h-0.011c-0.019,0-0.032,0-0.051,0h-0.037h-0.013c-0.012,0-0.025,0-0.037,0h-0.051
		h-0.016c-0.031-0.002-0.065-0.002-0.097-0.002h-0.006h-0.083h-0.003c-0.035-0.002-0.074-0.002-0.109-0.002h-0.001
		c-14.427-0.139-28.212-1.457-40.897-3.752h-0.006c-0.023-0.004-0.044-0.008-0.068-0.014c-0.007,0-0.012-0.002-0.019-0.002
		c-0.022-0.004-0.039-0.008-0.061-0.012c-0.01-0.002-0.015-0.002-0.025-0.006c-0.018-0.002-0.034-0.004-0.052-0.008
		c-0.01-0.002-0.025-0.004-0.036-0.008c-0.016-0.002-0.03-0.004-0.045-0.008c-0.014-0.002-0.028-0.004-0.042-0.008
		c-0.013-0.002-0.025-0.004-0.038-0.006c-0.017-0.004-0.035-0.006-0.052-0.01c-0.011-0.002-0.02-0.004-0.03-0.006
		c-0.021-0.004-0.038-0.006-0.059-0.01c-0.007-0.002-0.016-0.004-0.023-0.004c-0.021-0.004-0.044-0.008-0.064-0.012
		c-0.007-0.002-0.013-0.004-0.02-0.004c-0.028-0.006-0.048-0.01-0.076-0.014l-0.003-0.002c-16.497-3.041-31.111-7.738-42.829-13.631
		c16.11,20.439,59.323,35.072,110.109,35.072c64.536,0,116.853-23.627,116.853-52.771
		C418.423,242.924,407.125,230.576,388.56,221.234z"/>
	<path style="fill:#6A7F54;" d="M275.911,291.68h-0.004c0.035,0,0.074,0,0.109,0.002l-0.014-0.002H275.911z"/>
	<path style="fill:#6A7F54;" d="M276.2,291.684h0.004c-0.008,0-0.016,0-0.023-0.002L276.2,291.684z"/>
	<path style="fill:#6A7F54;" d="M395.28,238.592v-0.027c0,0.01,0,0.021,0,0.031V238.592z"/>
	<path style="fill:#6A7F54;" d="M234.291,287.797c-16.498-3.041-31.11-7.738-42.829-13.631
		C203.18,280.059,217.794,284.756,234.291,287.797z"/>
	<path style="fill:#6A7F54;" d="M395.28,238.633l0.002,0.059v0.01v0.018c0-0.039-0.001-0.082-0.002-0.123v0.033V238.633z"/>
	<path style="fill:#6A7F54;" d="M276.357,291.684c0.02,0,0.032,0,0.051,0h-0.012H276.357z"/>
	<path style="fill:#6A7F54;" d="M276.107,291.682c0.023,0,0.048,0,0.073,0h-0.062H276.107z"/>
	<path style="fill:#6A7F54;" d="M277.644,291.691L277.644,291.691c0.027,0,0.052,0,0.079,0h-0.02H277.644z"/>
	<path style="fill:#6A7F54;" d="M276.453,291.684c0.02,0,0.035,0,0.055,0.002l-0.01-0.002H276.453z"/>
	<path style="fill:#6A7F54;" d="M277.422,291.689c0.016,0,0.035,0,0.05,0.002l-0.027-0.002H277.422z"/>
	<path style="fill:#6A7F54;" d="M395.282,238.742v0.02v0.021v0.018v0.021v0.012c0-0.035,0-0.07,0-0.105V238.742z"/>
	<path style="fill:#6A7F54;" d="M277.115,291.688h0.003c-0.04,0-0.081,0-0.121,0C277.037,291.688,277.075,291.688,277.115,291.688z"
		/>
	<path style="fill:#6A7F54;" d="M276.704,291.686h-0.02c0.027,0,0.053,0.002,0.081,0.002l-0.05-0.002H276.704z"/>
	<path style="fill:#B69F90;" d="M191.461,274.166c20.87,10.496,50.92,17.193,84.443,17.514c-33.529-0.32-63.579-7.021-84.449-17.521
		L191.461,274.166z"/>
	<path style="fill:#B69F90;" d="M388.56,221.234l-0.015-0.008c4.271,5.422,6.644,11.254,6.735,17.328
		C395.189,232.482,392.828,226.654,388.56,221.234z"/>
	<path style="fill:#5F724A;" d="M404.408,141.344c-17.016-14.235-50.999-4.639-54.818-3.497c-3.397,1.016-5.329,4.594-4.314,7.992
		c1.016,3.396,4.592,5.326,7.986,4.314c8.557-2.541,32.942-7.307,42.913,1.047c3.688,3.091,5.089,8.037,4.286,15.122
		c-0.047,0.412-0.089,0.811-0.129,1.203c-0.373,3.636-0.6,5.83-7.711,13.489c-6.34,6.827-41.701,28.868-63.923,42.015
		c-3.052,1.805-4.063,5.744-2.256,8.797c1.198,2.025,3.337,3.152,5.532,3.152c1.111,0,2.238-0.289,3.264-0.895
		c5.823-3.445,57.163-33.957,66.795-44.33c9.339-10.057,10.447-14.812,11.075-20.916c0.036-0.348,0.072-0.703,0.114-1.067
		C414.853,153.388,409.328,145.46,404.408,141.344z"/>
	<path style="fill:#5F724A;" d="M276.241,120.927l-89.24-0.663c-2.169,69.31,42.808,126.859,42.808,126.859l0.125,0.15
		c6.011,8.969,24.072,15.518,45.525,15.682l0,0c0.248,0,0.493,0.006,0.744,0.006h0.038h0.038c0.25,0,0.495-0.006,0.744-0.006l0,0
		c21.453-0.164,39.513-6.713,45.524-15.682l0.126-0.15c0,0,44.977-57.55,42.808-126.859L276.241,120.927z"/>
	<ellipse style="fill:#E0DEDC;" cx="276.279" cy="117.68" rx="89.278" ry="40.918"/>
	<path style="fill:#B7B7B7;" d="M276.279,82.952c-41.848,0-75.771,15.548-75.771,34.729c0,2.545,0.603,5.026,1.737,7.416
		c7.413-15.617,37.74-27.313,74.034-27.313c36.293,0,66.622,11.696,74.034,27.313c1.134-2.39,1.737-4.871,1.737-7.416
		C352.051,98.5,318.128,82.952,276.279,82.952z"/>
	<path style="fill:#A87C4F;" d="M276.279,97.783c-36.294,0-66.622,11.696-74.034,27.313c7.413,15.616,37.74,27.312,74.034,27.312
		c36.293,0,66.622-11.695,74.034-27.312C342.901,109.479,312.572,97.783,276.279,97.783z"/>
</g>
</svg>
