<?xml version="1.0" encoding="UTF-8" standalone="no"?>
<!DOCTYPE svg PUBLIC "-//W3C//DTD SVG 1.1//EN" "http://www.w3.org/Graphics/SVG/1.1/DTD/svg11.dtd">
<svg xmlns="http://www.w3.org/2000/svg" version="1.1" viewBox="0.00 0.00 1448.00 1448.00">
<path fill="#000000" d="
  M 716.88 172.55
  C 723.40 173.36 730.73 172.70 737.36 172.77
  C 738.95 172.79 739.76 173.74 741.33 173.72
  C 745.67 173.67 755.49 172.64 759.01 174.77
  Q 759.45 175.04 759.97 175.03
  Q 767.50 174.84 770.73 175.14
  Q 811.56 178.90 851.65 187.37
  Q 852.43 187.54 855.24 188.53
  C 856.89 189.12 858.75 189.16 860.24 189.56
  Q 949.63 213.28 1027.31 263.43
  C 1038.53 270.68 1051.24 279.27 1062.05 287.73
  Q 1104.42 320.89 1142.30 364.44
  Q 1181.27 409.24 1208.28 456.69
  Q 1251.18 532.04 1269.62 612.80
  Q 1278.78 652.95 1281.56 699.27
  Q 1282.09 708.03 1282.24 719.26
  Q 1282.62 746.08 1282.14 759.21
  Q 1281.52 776.35 1278.13 803.02
  Q 1268.84 875.98 1241.25 941.01
  Q 1221.84 986.78 1191.79 1031.52
  Q 1187.34 1038.15 1173.42 1056.41
  Q 1166.38 1065.65 1161.02 1072.10
  Q 1137.30 1100.57 1107.60 1128.60
  Q 1060.06 1173.46 1005.58 1204.36
  Q 946.04 1238.14 880.24 1257.17
  Q 861.35 1262.64 844.75 1265.98
  C 842.84 1266.36 841.07 1267.02 839.49 1267.31
  Q 816.00 1271.66 795.24 1274.30
  C 790.22 1274.94 786.06 1275.73 780.88 1276.12
  Q 777.76 1276.36 773.25 1276.97
  Q 765.01 1278.08 740.46 1278.81
  Q 739.95 1278.83 739.55 1279.15
  Q 738.92 1279.67 738.50 1279.67
  Q 725.60 1279.64 712.71 1279.69
  C 710.95 1279.69 710.09 1278.72 708.36 1278.70
  Q 695.78 1278.54 683.25 1277.41
  C 650.77 1274.49 618.32 1269.74 586.64 1261.86
  Q 577.14 1259.49 567.36 1256.53
  Q 446.30 1219.92 350.44 1135.08
  Q 293.24 1084.46 252.28 1022.56
  Q 246.75 1014.20 241.64 1005.63
  Q 179.24 900.81 168.36 776.75
  Q 168.07 773.45 167.99 771.40
  Q 167.86 768.14 167.56 766.10
  C 166.80 760.82 167.03 754.06 166.87 750.31
  Q 165.44 715.80 169.40 676.91
  Q 173.91 632.57 184.32 592.90
  Q 186.74 583.69 189.92 573.71
  Q 237.35 425.28 351.56 319.16
  C 353.52 317.34 357.57 314.49 360.24 311.72
  Q 362.42 309.46 363.52 308.51
  Q 433.66 247.93 520.52 213.03
  Q 550.17 201.12 578.72 192.71
  Q 583.19 191.40 589.57 189.86
  Q 595.02 188.55 600.44 187.16
  Q 601.80 186.81 604.77 186.44
  C 607.48 186.11 609.63 185.14 612.53 184.83
  Q 613.74 184.70 614.89 184.30
  Q 616.28 183.82 617.18 183.72
  Q 624.58 182.83 631.81 181.16
  Q 632.88 180.92 635.73 180.81
  C 637.71 180.74 639.33 179.92 640.98 179.66
  C 647.48 178.62 653.99 178.06 660.52 177.25
  Q 685.35 174.15 710.36 173.61
  Q 711.42 173.59 713.80 172.83
  Q 715.29 172.35 716.88 172.55
  Z
  M 393.38 1087.08
  Q 393.50 1088.06 392.64 1087.58
  Q 380.62 1080.91 369.23 1074.23
  C 345.85 1060.50 325.46 1043.56 307.38 1023.11
  Q 267.42 977.90 239.97 924.93
  Q 222.00 890.26 210.17 853.03
  Q 209.29 850.26 208.75 847.31
  Q 208.63 846.65 208.45 847.29
  Q 208.06 848.70 208.33 849.89
  Q 210.25 858.15 213.82 870.21
  Q 229.83 924.32 256.42 974.08
  Q 271.65 1002.58 291.17 1028.33
  Q 313.52 1057.82 339.13 1084.47
  Q 346.02 1091.65 353.33 1098.55
  Q 378.48 1122.29 406.02 1143.26
  Q 434.54 1164.97 458.51 1178.77
  Q 519.12 1213.66 589.88 1232.78
  Q 597.53 1234.84 607.64 1237.01
  Q 621.20 1239.93 625.50 1240.78
  Q 653.11 1246.25 685.38 1248.14
  C 687.79 1248.28 691.06 1248.10 693.86 1248.39
  Q 697.84 1248.81 700.17 1248.70
  Q 710.46 1248.24 717.96 1248.23
  Q 726.16 1248.22 718.03 1247.16
  C 710.74 1246.22 702.54 1243.93 695.65 1242.75
  C 680.93 1240.23 668.13 1237.84 651.49 1235.07
  Q 633.55 1232.08 615.86 1227.82
  C 609.56 1226.30 602.31 1224.12 595.52 1222.32
  C 583.38 1219.09 572.89 1215.31 561.69 1210.90
  A 1.02 1.02 0.0 0 1 562.02 1208.93
  Q 563.09 1208.88 563.70 1209.44
  A 1.32 1.27 -17.2 0 0 564.34 1209.76
  Q 569.25 1210.61 574.05 1211.93
  Q 585.25 1215.00 596.65 1217.16
  C 600.31 1217.85 604.81 1219.23 608.98 1219.82
  C 612.88 1220.37 617.52 1221.70 621.95 1221.74
  Q 622.44 1221.74 622.86 1221.98
  Q 623.62 1222.42 625.26 1222.63
  Q 647.93 1225.57 655.75 1226.30
  Q 676.92 1228.28 698.19 1226.84
  Q 698.69 1226.80 699.12 1226.53
  Q 699.95 1226.01 700.71 1226.26
  Q 702.05 1226.72 702.12 1226.72
  Q 703.45 1226.76 704.60 1226.10
  Q 705.03 1225.85 705.48 1226.06
  Q 707.78 1227.17 709.95 1225.73
  A 1.42 1.37 31.6 0 1 710.90 1225.52
  Q 715.18 1226.15 719.44 1225.22
  A 0.52 0.52 0.0 0 0 719.35 1224.20
  Q 712.39 1223.83 706.11 1222.99
  C 691.06 1220.97 675.07 1219.03 656.50 1216.48
  Q 619.34 1211.37 584.74 1202.60
  Q 569.90 1198.83 555.82 1192.87
  C 550.85 1190.76 546.76 1182.38 544.14 1177.81
  C 543.05 1175.91 541.49 1174.53 540.19 1172.77
  A 1.13 1.12 82.6 0 1 541.51 1171.05
  Q 568.33 1181.82 596.77 1186.89
  A 0.25 0.25 0.0 0 0 596.93 1186.42
  Q 574.67 1175.02 552.63 1164.53
  Q 535.36 1156.32 530.34 1152.66
  Q 526.15 1149.61 522.62 1146.74
  A 3.11 3.11 0.0 0 1 521.51 1143.84
  L 522.94 1134.74
  A 1.29 1.29 0.0 0 1 524.54 1133.69
  Q 535.09 1136.40 545.11 1139.36
  C 546.09 1139.65 546.80 1139.57 547.80 1139.55
  A 1.87 1.87 0.0 0 1 548.77 1139.80
  Q 551.66 1141.50 555.08 1140.81
  A 1.26 1.23 -31.7 0 1 556.07 1141.03
  C 556.90 1141.66 557.43 1141.83 558.48 1141.98
  Q 572.11 1143.97 585.69 1144.15
  A 0.27 0.27 0.0 0 0 585.84 1143.66
  Q 566.92 1131.13 546.66 1120.87
  Q 546.23 1120.65 546.30 1120.17
  Q 546.65 1117.93 548.67 1117.70
  Q 549.20 1117.64 549.56 1117.24
  Q 556.69 1109.21 558.96 1103.76
  Q 562.38 1095.56 562.87 1082.27
  Q 562.90 1081.68 563.49 1081.68
  C 565.86 1081.68 568.37 1082.60 570.33 1082.76
  C 573.76 1083.04 576.71 1083.17 580.17 1084.03
  C 582.71 1084.67 585.15 1084.00 587.81 1084.68
  Q 590.63 1085.40 591.77 1085.52
  Q 610.54 1087.48 629.33 1089.29
  C 633.20 1089.67 637.77 1089.56 642.00 1089.98
  Q 650.96 1090.86 659.95 1090.46
  C 661.63 1090.38 663.29 1089.52 665.20 1090.70
  Q 665.59 1090.94 666.04 1090.95
  C 677.54 1091.08 689.51 1091.53 700.95 1090.45
  Q 704.67 1090.09 708.40 1090.00
  Q 714.66 1089.84 719.55 1089.42
  Q 724.32 1089.00 731.75 1088.55
  Q 745.48 1087.72 774.03 1083.44
  Q 777.06 1082.99 784.41 1081.71
  Q 789.61 1080.81 794.82 1080.08
  Q 797.53 1079.69 801.44 1078.87
  Q 804.75 1078.16 808.11 1077.70
  Q 813.19 1077.01 816.33 1076.37
  Q 820.42 1075.54 824.53 1074.83
  Q 831.13 1073.69 837.53 1071.69
  C 838.55 1071.37 839.62 1071.56 840.69 1071.50
  Q 841.21 1071.47 841.64 1071.18
  C 843.31 1070.03 845.09 1070.29 846.53 1069.91
  Q 856.99 1067.13 867.53 1064.65
  C 869.18 1064.26 871.30 1063.25 873.41 1063.11
  C 875.13 1063.00 876.10 1062.60 877.48 1061.83
  A 1.44 1.44 0.0 0 1 879.62 1063.05
  Q 879.82 1070.37 880.62 1077.80
  Q 881.46 1085.66 883.07 1090.55
  C 884.78 1095.75 887.42 1101.73 891.03 1106.11
  C 893.15 1108.70 896.75 1109.20 899.89 1109.76
  C 901.92 1110.12 903.97 1111.09 906.21 1111.27
  Q 908.91 1111.47 910.72 1111.94
  Q 913.58 1112.69 916.54 1112.68
  Q 918.17 1112.67 920.38 1113.26
  Q 923.72 1114.15 927.03 1112.73
  Q 927.50 1112.53 927.97 1112.72
  C 929.85 1113.49 931.91 1112.64 933.49 1112.61
  C 936.35 1112.58 938.56 1111.37 941.38 1111.23
  C 943.91 1111.09 947.41 1109.92 948.91 1109.63
  Q 958.38 1107.77 964.02 1105.62
  Q 969.25 1103.62 976.35 1098.35
  Q 992.01 1086.74 1002.15 1075.89
  Q 1009.02 1068.54 1015.79 1061.11
  Q 1018.20 1058.47 1023.28 1053.98
  Q 1031.23 1046.96 1036.86 1037.86
  C 1037.64 1036.61 1037.90 1033.81 1038.78 1033.06
  Q 1039.26 1032.65 1039.87 1032.71
  A 0.84 0.84 0.0 0 1 1040.63 1033.61
  C 1039.96 1043.41 1043.26 1053.08 1053.15 1056.85
  Q 1058.25 1058.80 1065.79 1058.77
  C 1067.76 1058.76 1069.29 1057.56 1071.41 1057.39
  Q 1074.07 1057.17 1075.24 1056.69
  Q 1088.12 1051.41 1098.19 1042.44
  C 1111.32 1030.76 1125.08 1017.21 1136.48 1004.13
  Q 1158.42 978.97 1168.45 949.21
  Q 1171.53 940.09 1171.03 927.17
  Q 1171.03 927.07 1171.24 924.36
  Q 1171.37 922.60 1170.32 920.97
  Q 1170.16 920.72 1170.13 921.01
  Q 1170.01 922.67 1169.59 923.51
  C 1167.20 928.30 1164.80 932.89 1162.82 937.97
  Q 1156.76 953.54 1149.53 968.59
  C 1146.72 974.44 1143.42 979.86 1139.97 985.33
  A 0.77 0.76 -17.2 0 1 1138.62 984.62
  L 1143.17 974.06
  Q 1143.31 973.74 1143.53 973.48
  Q 1144.19 972.71 1143.68 971.76
  A 0.62 0.61 61.8 0 1 1143.93 970.92
  Q 1145.51 970.09 1145.29 968.29
  Q 1145.24 967.85 1145.43 967.46
  C 1149.07 959.99 1150.40 950.27 1150.65 942.15
  Q 1150.92 933.48 1148.58 927.87
  C 1145.60 920.73 1139.50 915.16 1131.73 913.77
  Q 1131.25 913.69 1130.80 913.87
  Q 1126.79 915.47 1125.18 917.19
  Q 1109.82 933.58 1094.42 949.75
  A 0.37 0.36 -24.7 0 1 1093.79 949.52
  Q 1093.40 942.03 1092.59 934.44
  C 1092.26 931.37 1092.80 928.15 1092.40 924.84
  C 1092.10 922.40 1092.82 920.43 1092.76 918.51
  Q 1092.62 913.38 1094.76 910.76
  Q 1099.98 904.37 1108.21 898.17
  Q 1112.68 894.79 1121.00 890.37
  C 1131.24 884.94 1136.78 880.27 1144.55 874.50
  Q 1146.16 873.30 1148.48 870.98
  C 1153.39 866.05 1158.37 861.52 1163.27 855.02
  C 1171.45 844.17 1176.33 833.11 1178.61 820.02
  Q 1178.62 820.00 1179.07 816.44
  C 1179.57 812.56 1181.16 808.53 1180.95 804.29
  Q 1180.82 801.78 1181.41 799.79
  Q 1183.04 794.26 1183.90 788.86
  A 0.98 0.98 0.0 0 1 1185.83 788.83
  C 1185.96 789.48 1186.25 790.35 1186.28 791.07
  Q 1186.66 799.65 1187.25 808.21
  C 1187.91 817.98 1187.51 829.01 1188.27 839.46
  Q 1188.31 840.08 1188.68 839.58
  Q 1189.99 837.86 1190.31 835.80
  Q 1190.84 832.39 1191.03 831.79
  Q 1194.60 820.82 1195.47 812.99
  Q 1197.08 798.46 1198.76 783.93
  Q 1199.41 778.33 1200.35 773.29
  A 0.84 0.84 0.0 0 1 1202.02 773.36
  Q 1203.55 788.88 1203.26 804.19
  Q 1203.17 808.84 1203.62 814.79
  Q 1204.13 821.48 1203.56 825.42
  Q 1202.96 829.54 1203.27 833.51
  A 0.31 0.31 0.0 0 0 1203.87 833.57
  C 1206.20 825.86 1208.98 818.33 1210.73 810.56
  Q 1212.46 802.87 1214.25 795.19
  Q 1214.33 794.82 1214.26 794.35
  Q 1214.18 793.85 1214.25 793.49
  Q 1218.65 770.40 1217.62 746.87
  Q 1217.60 746.34 1217.87 745.89
  L 1226.09 732.31
  A 1.44 1.43 53.8 0 1 1228.71 732.72
  Q 1231.62 744.62 1232.75 756.27
  Q 1233.31 762.11 1233.92 767.93
  C 1235.22 780.32 1234.61 793.27 1234.45 805.72
  Q 1234.32 815.95 1230.14 844.24
  Q 1227.80 860.10 1221.36 884.12
  Q 1219.06 892.72 1215.69 903.30
  Q 1210.17 920.67 1208.17 925.98
  Q 1193.50 964.80 1174.32 996.57
  Q 1159.73 1020.72 1147.03 1035.54
  C 1142.84 1040.43 1136.70 1047.02 1130.82 1051.66
  Q 1120.23 1060.00 1112.81 1064.35
  Q 1082.24 1082.26 1051.01 1100.46
  A 0.33 0.33 0.0 0 0 1051.24 1101.07
  C 1063.61 1098.57 1074.98 1095.12 1087.11 1090.06
  Q 1096.65 1086.08 1106.34 1081.56
  A 0.57 0.57 0.0 0 1 1106.95 1082.51
  C 1099.11 1089.13 1091.14 1094.96 1082.04 1100.27
  Q 1059.46 1113.46 1036.25 1122.71
  Q 984.12 1143.50 927.51 1159.99
  C 920.12 1162.15 912.78 1164.73 905.44 1166.72
  Q 888.09 1171.43 871.23 1177.42
  A 0.18 0.18 0.0 0 0 871.28 1177.77
  Q 891.86 1178.98 912.25 1175.96
  Q 937.52 1172.22 970.76 1161.31
  C 992.06 1154.33 1015.20 1145.70 1037.07 1136.09
  Q 1046.58 1131.91 1056.09 1127.73
  Q 1056.53 1127.53 1056.69 1127.99
  Q 1056.89 1128.52 1056.35 1128.83
  C 1048.99 1133.06 1041.61 1138.00 1035.40 1141.38
  Q 1012.37 1153.89 988.75 1162.79
  C 971.22 1169.39 952.26 1175.31 934.22 1181.40
  Q 894.76 1194.73 855.85 1206.55
  Q 852.30 1207.63 856.00 1207.65
  Q 859.05 1207.67 863.25 1207.33
  C 866.97 1207.03 872.44 1205.82 877.21 1205.84
  C 880.08 1205.84 882.34 1204.58 885.28 1204.49
  Q 887.62 1204.42 889.63 1203.87
  C 892.23 1203.17 894.65 1203.44 897.19 1202.64
  C 899.78 1201.82 903.26 1201.56 905.08 1201.13
  Q 927.53 1195.83 949.52 1188.84
  C 952.59 1187.87 956.36 1186.99 960.10 1185.37
  Q 964.08 1183.64 971.46 1181.51
  C 972.45 1181.22 973.60 1180.32 974.99 1180.79
  A 0.39 0.38 41.2 0 1 975.04 1181.50
  Q 943.29 1196.87 910.29 1209.31
  Q 875.88 1222.28 853.24 1230.03
  Q 843.67 1233.31 834.08 1235.71
  Q 812.61 1241.07 794.12 1244.33
  Q 793.37 1244.46 792.90 1244.92
  A 0.38 0.38 0.0 0 0 793.20 1245.58
  L 800.50 1244.97
  Q 800.68 1244.96 800.81 1244.82
  L 801.08 1244.52
  Q 801.40 1244.18 801.88 1244.20
  Q 807.89 1244.52 813.60 1242.59
  C 814.83 1242.17 815.71 1242.31 816.92 1242.61
  A 0.93 0.92 -58.5 0 0 817.74 1242.41
  Q 819.79 1240.65 822.50 1241.24
  Q 823.00 1241.35 823.48 1241.13
  Q 826.52 1239.73 829.80 1239.85
  C 831.30 1239.90 831.95 1239.60 833.09 1238.80
  A 1.56 1.52 27.3 0 1 834.01 1238.52
  Q 837.53 1238.57 840.63 1237.01
  Q 841.13 1236.76 841.68 1236.85
  Q 844.02 1237.26 845.78 1235.72
  A 1.29 1.29 0.0 0 1 846.82 1235.42
  C 849.44 1235.86 851.44 1234.52 853.41 1234.11
  Q 856.84 1233.40 863.99 1231.47
  Q 942.01 1210.41 1008.85 1169.40
  Q 1016.70 1164.59 1025.52 1158.35
  Q 1048.81 1141.87 1063.36 1129.87
  Q 1081.18 1115.17 1104.31 1092.71
  Q 1112.34 1084.92 1118.35 1078.47
  Q 1161.96 1031.77 1194.76 972.50
  Q 1234.52 900.67 1246.94 822.75
  Q 1248.39 813.67 1251.02 794.25
  Q 1254.20 770.80 1254.94 749.50
  Q 1255.07 745.89 1254.46 740.75
  Q 1254.22 738.75 1254.85 736.30
  Q 1254.97 735.82 1254.85 735.35
  C 1251.66 723.07 1244.37 711.57 1236.83 700.93
  Q 1231.42 693.29 1222.65 691.74
  C 1218.13 690.94 1212.83 692.82 1208.33 694.17
  Q 1207.85 694.31 1207.37 694.17
  C 1201.09 692.36 1195.85 684.71 1192.42 679.43
  A 1.54 1.52 69.6 0 0 1190.93 678.74
  Q 1179.53 680.29 1168.52 683.57
  A 1.41 1.41 0.0 0 1 1166.82 682.78
  Q 1164.10 676.39 1160.05 670.31
  C 1157.56 666.57 1150.85 664.16 1146.81 662.45
  C 1134.13 657.07 1121.67 651.09 1108.50 646.98
  A 0.29 0.29 0.0 0 0 1108.25 647.50
  Q 1117.46 653.71 1126.73 660.09
  C 1131.43 663.32 1137.03 665.84 1142.10 669.01
  C 1146.31 671.65 1147.99 670.36 1149.74 676.17
  Q 1153.18 687.61 1157.74 698.66
  C 1158.43 700.35 1159.65 701.84 1160.47 703.49
  A 0.95 0.94 70.4 0 0 1161.52 703.99
  Q 1172.83 701.49 1183.66 697.28
  C 1184.80 696.84 1185.55 696.08 1186.58 695.38
  Q 1187.01 695.09 1187.38 695.45
  L 1208.14 715.05
  A 1.12 1.12 0.0 0 1 1208.37 716.36
  C 1203.33 726.43 1198.01 733.33 1190.00 743.05
  Q 1185.44 748.58 1181.69 754.72
  C 1180.83 756.13 1179.60 757.53 1178.42 758.40
  Q 1167.60 766.34 1155.81 772.79
  Q 1136.22 783.49 1115.56 792.16
  Q 1114.90 792.43 1114.90 791.72
  Q 1114.89 789.72 1116.11 787.97
  Q 1116.39 787.58 1116.45 787.10
  Q 1117.21 781.18 1118.96 775.46
  Q 1119.11 774.97 1119.59 774.78
  Q 1148.40 763.63 1172.80 744.74
  A 1.06 1.04 73.9 0 0 1173.20 744.00
  Q 1173.74 737.27 1176.63 731.23
  A 0.27 0.27 0.0 0 0 1176.21 730.91
  Q 1157.85 746.51 1136.71 758.17
  Q 1129.12 762.36 1121.45 766.42
  C 1120.06 767.16 1119.21 768.15 1118.17 769.24
  A 0.63 0.63 0.0 0 1 1117.21 769.18
  C 1108.50 757.35 1101.06 746.49 1090.13 734.83
  Q 1089.78 734.47 1089.76 733.96
  C 1089.45 727.74 1090.73 722.18 1088.22 717.75
  Q 1075.96 696.07 1062.26 675.50
  A 0.83 0.83 0.0 0 0 1060.84 675.55
  Q 1058.92 678.93 1059.85 682.74
  C 1063.14 696.22 1068.16 708.81 1072.89 721.82
  C 1075.19 728.11 1076.67 735.01 1078.46 741.70
  C 1079.49 745.55 1081.86 750.35 1083.84 753.77
  Q 1095.91 774.59 1106.38 796.26
  C 1109.99 803.73 1112.29 805.75 1119.29 809.02
  C 1123.49 810.98 1130.71 809.99 1135.10 808.92
  C 1137.00 808.45 1138.86 808.86 1140.79 808.28
  Q 1144.10 807.28 1144.83 807.18
  Q 1149.89 806.49 1155.17 805.46
  A 1.39 1.39 0.0 0 1 1156.75 807.29
  C 1155.43 810.97 1155.26 815.33 1154.16 818.53
  Q 1151.63 825.85 1146.41 832.97
  Q 1132.96 851.30 1126.74 859.00
  Q 1125.03 861.12 1122.48 862.19
  Q 1113.13 866.14 1104.23 871.01
  C 1099.09 873.82 1093.51 880.84 1089.93 884.80
  Q 1077.81 898.22 1069.51 914.30
  C 1067.39 918.41 1065.61 923.72 1065.87 927.85
  Q 1066.17 932.56 1068.34 948.83
  Q 1069.04 954.12 1068.92 956.73
  C 1068.39 968.11 1059.44 979.58 1050.37 986.36
  Q 1039.09 994.79 1028.21 1003.71
  Q 1023.07 1007.93 1020.11 1012.37
  A 1.65 1.64 61.6 0 0 1019.83 1013.32
  Q 1019.86 1017.49 1019.32 1021.65
  C 1018.73 1026.18 1015.62 1029.80 1012.84 1033.23
  C 1009.11 1037.84 1003.34 1041.23 998.57 1044.93
  Q 994.39 1048.17 990.63 1052.32
  Q 982.53 1061.26 974.57 1070.33
  C 970.87 1074.55 966.93 1078.92 961.72 1081.11
  Q 957.91 1082.71 954.24 1083.43
  Q 940.43 1086.12 924.38 1087.61
  C 920.34 1087.99 916.79 1087.66 912.82 1087.27
  A 1.69 1.67 0.4 0 1 911.31 1085.75
  C 909.87 1069.78 907.19 1054.83 902.73 1038.59
  Q 898.06 1021.56 893.64 1004.46
  C 891.97 997.97 888.71 989.00 892.15 981.99
  C 896.21 973.73 902.22 964.61 906.09 955.02
  Q 907.32 951.98 907.34 948.82
  Q 907.40 937.62 904.68 926.71
  Q 902.41 917.56 896.92 911.81
  Q 892.24 906.91 889.70 903.44
  A 1.33 1.32 -60.0 0 1 889.45 902.50
  C 890.38 894.49 891.37 886.53 892.58 878.56
  Q 893.50 872.54 893.49 866.36
  Q 893.49 865.83 893.10 865.46
  C 891.41 863.86 889.96 862.09 888.20 860.61
  Q 873.34 848.11 860.77 838.98
  Q 859.24 837.87 856.91 836.79
  Q 855.10 835.95 852.95 836.25
  Q 843.63 837.55 816.31 841.60
  Q 798.84 844.18 777.25 845.75
  C 774.11 845.97 769.96 842.44 768.20 840.79
  Q 749.87 823.72 736.71 802.50
  Q 736.60 802.33 731.63 794.64
  C 729.78 791.76 723.66 782.22 724.22 778.99
  Q 726.55 765.72 730.33 752.77
  C 730.84 751.02 730.69 749.33 731.09 747.53
  Q 731.60 745.15 731.55 743.64
  Q 731.04 730.24 730.61 716.84
  Q 730.35 708.49 729.17 700.22
  C 728.99 698.95 730.07 696.90 730.87 695.93
  Q 737.98 687.31 744.68 678.31
  Q 746.23 676.22 748.46 674.88
  Q 758.35 668.90 767.82 662.25
  C 769.12 661.34 770.58 661.17 772.07 660.59
  A 2.04 2.01 38.0 0 1 773.02 660.48
  Q 783.01 661.77 786.32 652.23
  C 787.58 648.56 786.44 642.52 788.52 638.46
  Q 790.11 635.36 792.58 632.82
  Q 800.82 624.34 808.49 616.80
  A 3.51 3.51 0.0 0 1 812.04 615.96
  Q 816.11 617.29 820.24 618.60
  Q 826.64 620.62 832.94 618.33
  Q 843.31 614.55 853.97 611.65
  Q 854.45 611.51 854.94 611.65
  Q 856.34 612.05 857.50 611.95
  Q 870.54 610.87 883.46 612.80
  C 887.93 613.47 891.52 615.74 895.67 617.43
  A 5.11 5.11 0.0 0 0 899.49 617.43
  Q 902.60 616.17 906.14 614.34
  Q 907.83 613.46 909.15 613.66
  C 912.24 614.13 913.34 616.02 913.31 619.21
  Q 913.24 627.62 912.61 636.03
  C 912.33 639.85 913.29 643.11 913.88 646.84
  Q 913.96 647.35 914.47 647.34
  C 919.27 647.29 926.75 646.38 931.11 648.41
  C 943.40 654.15 954.32 662.33 965.88 669.39
  Q 966.30 669.65 966.69 669.35
  L 983.44 656.65
  Q 983.67 656.47 984.20 656.59
  Q 994.48 658.99 1004.51 662.31
  Q 1005.02 662.48 1007.49 662.93
  Q 1008.68 663.15 1010.51 663.70
  C 1015.60 665.22 1020.88 663.55 1026.10 663.90
  Q 1030.38 664.19 1034.68 664.18
  Q 1036.76 664.18 1040.51 663.41
  Q 1044.22 662.65 1046.50 663.27
  C 1052.49 664.92 1054.64 663.59 1059.54 662.80
  C 1061.29 662.51 1063.75 661.10 1065.41 661.38
  A 3.07 3.07 0.0 0 0 1068.84 659.26
  Q 1074.26 641.81 1076.88 623.26
  C 1077.58 618.24 1074.83 617.07 1070.52 618.25
  Q 1062.35 620.47 1057.10 622.11
  Q 1053.87 623.11 1050.81 622.11
  A 1.26 1.25 -2.0 0 1 1050.04 621.40
  Q 1048.12 616.78 1042.63 602.43
  Q 1041.83 600.34 1039.60 601.77
  A 1.12 1.07 -9.5 0 0 1039.13 602.40
  C 1037.70 607.57 1038.11 612.89 1036.42 617.71
  A 1.92 1.92 0.0 0 1 1034.62 619.01
  Q 1029.50 619.07 1023.99 619.04
  Q 1019.04 619.01 1016.71 614.81
  C 1013.32 608.71 1010.65 602.12 1009.43 595.22
  C 1008.73 591.28 1008.17 587.87 1005.34 584.96
  Q 1002.37 581.91 999.00 580.98
  C 996.99 580.42 994.79 582.83 993.59 583.77
  Q 989.56 586.96 987.75 591.77
  Q 987.04 593.67 987.69 595.76
  Q 989.56 601.69 993.19 606.82
  Q 994.36 608.48 994.23 610.73
  A 0.90 0.90 0.0 0 1 993.72 611.49
  Q 987.79 614.36 983.78 619.49
  Q 983.39 619.98 983.10 619.43
  Q 973.27 600.81 967.53 580.55
  Q 966.35 576.39 964.19 575.04
  C 950.97 566.80 942.95 557.59 930.36 544.40
  C 929.59 543.59 928.36 543.01 927.39 542.61
  A 1.27 1.26 19.2 0 0 925.69 543.43
  Q 923.62 550.74 927.35 556.97
  C 932.95 566.31 945.19 576.10 954.38 583.61
  C 955.54 584.57 956.42 585.75 956.64 587.12
  A 1.78 1.78 0.0 0 1 954.49 589.14
  Q 950.83 588.30 949.09 591.81
  C 946.68 596.68 943.10 607.96 936.06 608.44
  C 930.94 608.79 922.03 602.43 917.75 599.71
  A 0.98 0.98 0.0 0 1 917.93 597.97
  C 919.27 597.46 919.95 598.13 921.10 598.60
  C 927.17 601.08 936.01 599.80 936.18 591.48
  Q 936.22 589.47 934.63 587.54
  Q 931.05 583.18 926.73 579.52
  Q 915.87 570.30 909.38 557.69
  Q 909.25 557.44 908.91 556.22
  Q 908.64 555.24 907.75 555.01
  Q 907.03 554.83 905.84 555.44
  Q 898.61 559.15 890.75 561.24
  Q 889.32 561.62 888.04 561.01
  C 884.50 559.32 882.41 560.70 879.23 561.40
  Q 869.52 563.56 862.19 571.19
  Q 851.66 582.16 844.26 593.37
  C 842.06 596.70 839.64 598.44 836.24 599.97
  Q 824.97 605.06 812.02 605.84
  Q 811.51 605.87 811.10 605.57
  C 808.05 603.41 805.39 601.46 801.94 599.62
  C 797.27 597.13 790.60 593.13 788.88 588.05
  Q 788.13 585.84 788.86 582.41
  Q 791.39 570.55 792.87 558.53
  C 793.81 550.92 797.74 548.77 803.36 544.59
  Q 803.77 544.29 804.26 544.40
  C 807.73 545.17 811.08 545.76 814.46 546.87
  Q 822.65 549.57 828.00 551.03
  Q 832.95 552.38 838.44 552.35
  C 841.41 552.33 843.04 550.77 843.60 548.01
  C 844.61 543.03 844.95 536.78 841.46 532.52
  Q 834.85 524.45 827.32 517.42
  A 0.57 0.56 -31.7 0 1 827.55 516.46
  Q 833.69 514.68 840.21 514.26
  C 843.33 514.07 846.53 512.92 849.94 512.99
  Q 850.44 513.00 850.89 512.78
  Q 852.93 511.79 855.18 511.66
  C 857.86 511.52 862.35 509.58 864.32 507.82
  C 866.94 505.48 868.55 500.63 870.05 497.44
  Q 870.27 496.99 870.72 496.78
  C 872.16 496.11 873.17 495.37 874.71 494.89
  Q 882.58 492.41 888.03 486.21
  C 888.82 485.31 890.12 482.87 891.75 482.59
  Q 902.94 480.70 913.97 478.03
  C 916.04 477.53 918.63 477.91 921.03 476.43
  A 1.32 1.32 0.0 0 1 922.00 476.26
  Q 923.76 476.62 925.16 475.67
  Q 925.65 475.34 926.17 475.61
  C 929.26 477.22 931.47 480.28 935.00 482.08
  C 938.47 483.85 941.59 483.48 945.42 483.46
  C 948.98 483.45 952.34 482.19 955.82 481.38
  C 961.05 480.18 967.07 480.76 972.43 480.76
  A 0.56 0.56 0.0 0 0 972.99 480.22
  Q 973.15 474.29 972.50 468.55
  Q 972.18 465.63 972.42 462.44
  C 972.71 458.55 972.47 455.05 973.09 451.15
  Q 973.18 450.64 973.59 450.32
  L 977.27 447.50
  Q 977.74 447.14 978.28 447.35
  C 980.41 448.17 980.17 451.28 980.82 453.34
  Q 981.27 454.79 981.43 456.91
  Q 981.75 461.16 984.74 464.51
  Q 985.09 464.90 985.61 464.90
  Q 988.88 464.90 991.70 463.18
  Q 992.15 462.91 992.26 462.39
  Q 993.36 457.02 990.56 452.46
  C 988.12 448.50 981.75 439.74 991.44 440.06
  Q 996.31 440.22 998.98 441.31
  Q 1002.37 442.69 1005.75 443.43
  A 1.01 1.00 -78.0 0 0 1006.94 442.65
  L 1009.28 431.51
  A 0.52 0.52 0.0 0 0 1008.76 430.88
  Q 995.81 431.17 983.09 433.61
  Q 980.35 434.14 977.52 433.77
  Q 977.01 433.70 976.63 433.36
  Q 970.91 428.12 967.40 421.20
  C 966.47 419.37 966.65 417.73 967.55 416.03
  Q 975.25 401.48 988.72 391.46
  C 989.94 390.56 990.83 389.68 990.65 388.00
  Q 989.68 378.98 982.24 374.49
  C 978.51 372.24 975.13 375.02 973.31 378.08
  Q 962.72 395.88 950.67 412.71
  Q 949.54 414.28 949.17 416.24
  A 0.98 0.98 0.0 0 0 949.41 417.10
  L 961.46 430.29
  A 1.86 1.86 0.0 0 1 961.27 432.98
  Q 955.01 438.16 951.15 442.60
  Q 948.23 445.96 947.68 448.25
  Q 947.03 450.97 945.88 461.26
  Q 945.81 461.84 945.25 462.01
  Q 936.93 464.55 929.12 468.43
  A 1.21 1.21 0.0 0 1 927.41 467.04
  C 927.84 465.37 927.18 464.09 926.84 462.68
  Q 923.64 449.41 917.93 436.43
  A 1.38 1.37 -22.5 0 0 916.18 435.71
  L 897.92 442.71
  A 1.46 1.45 61.8 0 1 896.19 442.18
  Q 890.82 434.47 886.79 425.45
  C 885.59 422.75 886.14 420.18 885.75 417.28
  Q 885.51 415.51 885.85 413.74
  C 886.61 409.89 886.01 406.20 889.34 403.33
  Q 894.98 398.49 902.84 393.81
  C 912.63 388.00 918.57 380.25 921.04 369.00
  C 922.23 363.59 921.69 356.87 921.77 350.83
  Q 921.77 350.32 922.15 349.99
  Q 933.78 339.64 946.83 331.16
  Q 950.41 328.84 954.78 327.36
  Q 968.57 322.72 982.42 318.22
  Q 982.92 318.06 983.38 318.29
  C 985.29 319.23 987.58 319.00 989.10 319.36
  Q 999.61 321.81 1007.16 326.32
  Q 1016.58 331.95 1024.83 334.45
  C 1026.87 335.07 1029.34 335.00 1031.64 335.61
  C 1034.95 336.49 1037.99 336.03 1041.28 337.48
  A 1.63 1.61 -37.6 0 0 1042.24 337.60
  Q 1043.12 337.46 1043.77 337.67
  Q 1050.91 340.02 1058.15 341.33
  A 0.69 0.68 -77.3 0 1 1058.69 342.19
  L 1053.79 359.59
  A 0.81 0.81 0.0 0 1 1052.83 360.16
  Q 1042.85 357.85 1033.00 357.43
  Q 1029.53 357.28 1026.61 358.00
  A 0.78 0.78 0.0 0 0 1026.28 359.34
  Q 1031.51 363.95 1036.27 368.26
  Q 1043.32 374.63 1046.68 376.05
  Q 1051.56 378.11 1057.10 377.55
  Q 1060.44 377.22 1062.94 375.38
  C 1065.92 373.18 1068.43 370.55 1068.53 366.53
  C 1068.71 360.19 1068.95 354.42 1071.43 348.45
  Q 1073.82 342.69 1076.64 337.35
  A 1.66 1.66 0.0 0 0 1076.07 335.18
  Q 1073.79 333.71 1071.62 331.86
  Q 1040.64 305.39 1006.39 283.42
  Q 998.91 278.62 989.23 273.14
  Q 965.27 259.56 957.27 255.92
  Q 926.89 242.10 918.20 238.59
  Q 877.59 222.17 830.55 212.29
  Q 820.62 210.20 810.89 208.66
  Q 730.39 195.85 648.87 207.12
  Q 614.48 211.88 582.41 221.94
  Q 581.87 222.11 581.99 222.66
  C 582.31 224.11 583.56 224.57 584.45 225.31
  Q 597.77 236.45 610.35 248.51
  A 0.66 0.66 0.0 0 0 611.13 248.61
  L 630.34 238.10
  Q 631.61 237.40 632.64 238.43
  Q 640.09 245.93 645.69 254.50
  C 647.67 257.53 646.96 259.34 645.44 262.25
  Q 642.55 267.77 639.21 270.96
  Q 638.82 271.34 638.28 271.32
  C 636.32 271.28 634.36 271.40 632.43 270.91
  Q 618.67 267.36 605.58 261.85
  Q 601.04 259.94 597.98 257.19
  Q 593.56 253.24 589.91 248.28
  A 1.16 1.16 0.0 0 0 588.26 248.05
  Q 582.08 252.93 574.78 255.85
  A 1.10 1.09 -40.5 0 1 573.82 255.78
  C 566.45 251.51 560.40 245.70 553.77 239.46
  Q 553.43 239.14 553.09 239.46
  L 546.44 245.59
  A 0.73 0.71 31.5 0 1 545.74 245.75
  Q 537.93 243.33 530.08 241.01
  Q 528.29 240.49 527.22 240.94
  Q 500.66 252.24 482.93 261.17
  C 477.91 263.70 472.94 265.88 468.87 268.29
  Q 450.83 279.00 433.68 290.61
  Q 433.15 290.96 433.45 291.52
  L 439.98 303.61
  A 0.44 0.44 0.0 0 0 440.50 303.82
  L 465.73 295.22
  Q 466.30 295.03 466.81 295.37
  Q 472.79 299.47 480.05 299.95
  A 0.96 0.96 0.0 0 1 480.12 301.86
  Q 469.43 303.39 459.53 307.28
  Q 446.04 312.57 433.27 319.40
  C 430.16 321.06 425.26 317.04 422.31 314.82
  Q 421.92 314.52 421.46 314.72
  Q 417.52 316.45 414.25 319.26
  C 404.21 327.86 394.63 336.88 384.24 345.05
  A 0.67 0.67 0.0 0 0 384.20 346.07
  Q 390.18 351.55 396.63 356.25
  C 398.64 357.72 402.52 360.92 403.03 362.46
  Q 408.10 377.97 413.38 393.42
  Q 413.55 393.92 414.06 393.82
  Q 423.71 392.10 437.27 388.91
  Q 457.72 384.10 474.48 372.43
  Q 474.89 372.14 475.01 371.64
  C 477.31 361.85 477.47 353.26 483.44 345.69
  Q 486.59 341.70 498.00 327.86
  Q 498.32 327.46 498.83 327.50
  Q 505.91 327.98 512.69 330.06
  C 514.78 330.70 516.87 330.13 519.00 331.54
  Q 519.43 331.83 519.94 331.82
  Q 522.90 331.78 525.53 333.11
  Q 525.98 333.34 526.48 333.35
  Q 533.87 333.48 538.39 338.85
  C 541.44 342.48 544.65 347.47 548.79 352.28
  C 550.98 354.83 548.13 356.36 547.19 357.98
  Q 544.82 362.04 541.79 365.61
  C 539.86 367.88 538.60 370.04 537.12 372.52
  A 0.89 0.88 11.8 0 0 537.99 373.85
  C 540.30 373.55 542.70 374.39 544.70 374.26
  Q 550.57 373.88 553.68 368.71
  Q 556.60 363.86 559.51 359.00
  Q 559.77 358.57 559.77 358.06
  Q 559.78 356.62 560.93 356.08
  Q 561.44 355.83 561.87 356.20
  Q 565.12 359.01 567.87 362.26
  C 568.98 363.56 568.84 364.28 568.24 365.75
  Q 560.34 385.05 554.16 397.78
  C 553.24 399.67 552.73 401.68 551.86 403.61
  A 0.65 0.65 0.0 0 0 552.15 404.46
  Q 556.47 406.69 561.08 408.03
  C 566.07 409.47 575.11 411.61 577.63 416.38
  C 579.51 419.92 579.66 424.86 580.43 428.90
  Q 580.93 431.52 581.12 434.24
  A 1.13 1.12 -23.6 0 1 580.76 435.15
  Q 577.05 438.48 572.31 440.04
  Q 560.19 444.03 547.50 445.44
  C 544.96 445.72 541.79 445.50 539.04 444.45
  Q 526.99 439.82 514.47 436.65
  Q 510.10 435.55 505.66 435.01
  Q 502.92 434.68 500.51 435.66
  Q 488.76 440.44 482.19 452.39
  Q 481.39 453.85 483.05 453.65
  Q 487.79 453.06 493.13 453.31
  C 495.86 453.43 498.73 452.74 501.63 452.94
  C 507.95 453.39 514.14 453.24 520.43 453.79
  C 522.71 453.99 525.06 455.15 527.75 455.41
  A 1.72 1.71 -76.9 0 1 529.19 457.73
  Q 527.92 461.11 525.49 463.63
  Q 525.10 464.02 524.56 463.97
  Q 518.54 463.35 513.09 465.64
  Q 512.68 465.82 512.60 466.26
  C 512.25 468.41 512.93 470.86 513.12 472.44
  Q 513.85 478.78 517.11 484.93
  Q 518.78 488.07 517.57 491.62
  Q 517.41 492.10 516.99 492.38
  Q 511.73 496.05 505.45 495.71
  C 501.34 495.50 496.86 492.31 492.89 490.58
  A 1.12 1.10 -45.6 0 0 491.97 490.60
  Q 481.76 495.35 469.40 502.16
  C 463.51 505.41 457.89 508.77 453.27 512.99
  Q 452.19 513.98 451.05 514.10
  C 440.58 515.19 429.11 519.08 421.87 527.04
  Q 411.73 538.22 405.53 552.18
  Q 404.36 554.83 400.99 555.47
  Q 397.67 556.11 389.70 558.76
  Q 382.55 561.15 378.83 563.20
  Q 363.17 571.84 358.44 589.78
  C 357.77 592.30 357.48 595.04 357.07 597.75
  Q 356.62 600.75 356.58 603.78
  Q 356.44 613.98 356.14 624.20
  Q 356.08 626.47 355.09 629.12
  Q 353.64 632.97 353.40 636.49
  Q 353.25 638.72 351.46 637.38
  C 347.06 634.10 335.17 624.15 335.78 618.76
  Q 336.41 613.21 337.18 607.64
  C 338.29 599.67 335.37 593.59 330.36 587.39
  Q 324.49 580.14 316.43 584.88
  Q 313.57 586.56 311.57 587.98
  A 3.50 3.49 41.9 0 1 307.84 588.18
  L 289.03 577.64
  Q 288.60 577.41 288.18 577.65
  Q 277.28 583.90 270.82 594.29
  Q 263.48 606.13 258.92 619.62
  Q 256.39 627.09 255.35 630.88
  C 253.25 638.46 253.12 645.27 253.17 653.66
  Q 253.20 659.43 254.55 663.22
  Q 259.09 675.96 272.11 681.66
  Q 272.55 681.85 272.98 681.61
  Q 273.63 681.24 274.35 681.36
  Q 274.91 681.46 275.35 681.11
  Q 283.54 674.75 292.67 669.84
  A 1.19 1.17 42.2 0 1 293.70 669.80
  C 298.02 671.63 302.32 676.46 304.74 680.30
  A 1.71 1.71 0.0 0 1 304.41 682.50
  Q 295.50 690.20 288.71 699.84
  A 2.11 2.10 32.8 0 0 289.37 702.86
  Q 301.15 709.78 311.82 718.25
  A 1.20 1.20 0.0 0 1 312.17 719.68
  Q 307.35 730.51 305.74 742.74
  C 304.71 750.57 309.64 758.99 318.23 759.12
  Q 323.37 759.19 328.49 760.07
  Q 329.01 760.16 329.11 760.67
  Q 330.60 768.43 335.65 774.39
  A 1.40 1.39 49.2 0 0 337.63 774.54
  Q 345.79 767.36 352.81 759.77
  Q 353.67 758.83 356.74 758.22
  Q 363.76 756.82 370.88 755.91
  Q 371.38 755.84 371.57 755.38
  Q 371.80 754.82 372.50 754.88
  Q 376.62 755.29 379.51 757.74
  Q 388.23 765.16 396.72 772.81
  Q 399.32 775.16 403.82 775.96
  Q 406.31 776.41 408.54 776.99
  C 411.72 777.81 415.33 777.58 418.05 778.42
  C 426.66 781.09 434.85 794.82 437.96 803.27
  Q 439.32 806.95 440.87 810.67
  A 1.61 1.59 -85.8 0 0 441.51 811.42
  Q 446.05 814.15 450.91 816.29
  Q 464.76 822.39 478.70 828.27
  C 494.63 834.99 513.06 850.74 513.56 869.49
  Q 513.65 872.71 514.48 874.32
  Q 515.76 876.83 517.93 878.12
  Q 526.99 883.51 536.02 888.93
  Q 548.07 896.17 562.62 908.13
  Q 565.87 910.80 568.52 914.13
  A 1.19 1.17 72.9 0 0 569.31 914.56
  Q 575.67 915.23 582.00 915.95
  Q 590.35 916.91 595.17 919.55
  Q 605.09 924.98 614.13 931.73
  C 615.71 932.90 617.05 934.62 618.44 936.06
  A 1.07 1.05 28.0 0 1 618.72 936.95
  Q 618.50 938.25 617.90 939.46
  C 611.78 952.00 603.65 963.05 595.50 974.30
  C 591.47 979.86 589.90 983.75 590.25 990.26
  Q 590.65 997.98 590.80 1010.90
  Q 590.85 1014.94 589.71 1017.94
  C 587.89 1022.76 583.10 1032.39 577.51 1032.66
  Q 566.38 1033.19 555.24 1034.01
  C 546.17 1034.68 540.28 1037.20 537.74 1046.50
  Q 535.26 1055.62 535.45 1065.42
  Q 535.55 1070.66 535.36 1073.60
  Q 535.08 1077.68 534.87 1081.76
  Q 534.77 1083.82 533.93 1085.45
  Q 530.04 1092.99 524.52 1100.52
  C 521.82 1104.21 516.04 1104.30 511.56 1104.27
  A 0.80 0.78 -77.8 0 0 510.82 1104.76
  Q 508.29 1110.88 505.58 1113.80
  Q 497.14 1122.92 489.92 1134.46
  Q 485.35 1141.77 484.82 1150.15
  Q 484.79 1150.68 485.23 1150.95
  Q 492.80 1155.62 501.08 1158.88
  Q 504.66 1160.29 505.30 1163.46
  C 506.26 1168.22 506.55 1171.08 509.65 1174.95
  Q 516.38 1183.34 522.73 1192.49
  A 0.61 0.61 0.0 0 1 522.21 1193.45
  Q 521.35 1193.42 520.34 1192.90
  C 514.20 1189.76 506.45 1186.78 501.54 1184.46
  Q 487.07 1177.62 473.34 1169.34
  Q 469.24 1166.87 467.65 1165.11
  Q 455.49 1151.65 445.69 1136.44
  C 440.31 1128.08 433.77 1120.34 428.45 1111.76
  C 426.44 1108.52 425.81 1105.15 425.16 1101.50
  C 424.05 1095.33 422.77 1090.87 421.05 1085.51
  Q 419.70 1081.27 419.13 1077.34
  Q 417.21 1064.02 415.46 1050.68
  C 414.63 1044.35 407.58 1037.13 404.64 1031.29
  C 400.43 1022.91 398.09 1012.89 395.19 1003.94
  Q 390.05 988.04 388.69 985.03
  Q 384.97 976.79 379.02 969.86
  C 371.60 961.20 361.85 954.86 355.68 945.27
  Q 342.75 925.19 324.92 894.59
  Q 322.54 890.51 314.96 881.08
  Q 314.63 880.66 314.62 880.13
  C 314.56 876.72 315.22 870.95 313.71 867.08
  Q 311.99 862.66 311.94 862.48
  Q 309.23 852.90 308.51 842.93
  Q 308.48 842.42 308.72 841.98
  C 312.93 834.44 317.69 827.25 322.04 819.77
  Q 330.13 805.88 329.61 791.54
  C 329.41 786.02 324.07 781.04 319.80 778.17
  Q 306.17 769.01 292.99 759.22
  Q 288.68 756.01 286.29 752.98
  C 280.80 746.05 277.10 737.33 272.58 729.70
  C 268.83 723.37 263.62 716.28 259.29 709.46
  Q 256.98 705.82 250.99 700.82
  C 242.19 693.47 230.05 684.09 226.24 672.66
  Q 224.87 668.55 224.67 666.77
  Q 223.51 656.48 224.91 646.26
  C 225.41 642.61 224.52 637.69 224.57 633.58
  Q 224.71 619.63 218.57 606.98
  Q 217.35 604.47 215.66 602.97
  A 2.81 2.80 -64.6 0 1 214.75 600.40
  C 215.64 595.11 215.51 588.87 215.96 584.44
  Q 216.35 580.61 216.92 576.72
  Q 216.98 576.33 216.76 576.65
  Q 216.13 577.53 215.73 578.66
  C 212.81 586.99 209.82 595.55 207.95 603.93
  Q 201.60 632.32 202.44 661.49
  C 202.50 663.50 203.27 665.40 203.53 667.47
  Q 204.04 671.44 204.16 671.99
  Q 207.25 686.35 215.05 698.53
  Q 218.75 704.30 225.64 710.94
  Q 231.54 716.63 237.68 722.07
  Q 240.17 724.27 240.49 727.95
  Q 240.92 732.87 240.94 732.97
  C 243.97 748.37 248.81 762.04 259.23 774.01
  A 2.93 2.92 26.5 0 1 259.94 776.12
  L 259.16 786.88
  A 1.07 1.07 0.0 0 0 259.56 787.79
  Q 267.73 794.15 277.73 796.85
  A 0.72 0.71 -1.1 0 0 278.60 795.95
  Q 277.56 792.57 276.85 788.91
  C 276.38 786.50 274.75 784.95 274.07 782.64
  A 0.92 0.92 0.0 0 1 275.45 781.60
  L 297.17 795.58
  A 2.05 2.04 -62.5 0 1 297.95 798.08
  Q 291.92 812.86 285.72 826.75
  Q 282.31 834.40 280.86 842.61
  C 280.46 844.91 280.33 848.30 280.72 850.24
  Q 284.78 870.52 292.03 886.48
  Q 305.73 916.64 326.46 948.29
  Q 334.09 959.95 343.14 970.53
  C 348.42 976.70 354.90 982.37 361.10 987.99
  C 362.46 989.22 364.29 991.36 364.65 992.82
  Q 370.34 1015.75 378.68 1037.86
  Q 381.95 1046.52 386.38 1055.21
  A 0.87 0.87 0.0 0 1 385.30 1056.42
  Q 384.92 1056.28 384.02 1055.72
  Q 349.82 1034.52 321.43 1006.22
  Q 314.41 999.22 308.00 991.42
  C 283.75 961.92 264.37 928.70 249.18 893.70
  Q 248.99 893.27 248.81 893.71
  Q 248.71 893.95 248.80 894.24
  Q 262.84 940.67 288.13 981.80
  Q 293.68 990.83 299.34 998.36
  Q 315.94 1020.43 336.10 1037.64
  Q 357.39 1055.82 383.59 1070.52
  C 385.46 1071.57 388.85 1071.68 389.47 1074.47
  Q 390.25 1077.97 391.17 1081.38
  C 391.67 1083.21 393.12 1085.11 393.38 1087.08
  Z
  M 941.44 349.69
  Q 942.12 349.28 942.22 348.66
  Q 942.34 347.90 941.72 348.36
  C 937.96 351.15 935.65 354.03 934.29 358.84
  Q 929.91 374.27 922.87 388.84
  A 0.49 0.49 0.0 0 0 923.51 389.51
  C 932.55 385.58 937.09 376.60 939.30 367.61
  Q 939.82 365.48 939.73 360.85
  Q 939.63 355.61 940.85 350.50
  A 1.32 1.30 81.6 0 1 941.44 349.69
  Z
  M 387.05 373.46
  Q 388.73 373.31 390.18 373.34
  A 0.69 0.69 0.0 0 0 390.57 372.06
  Q 381.51 366.28 373.02 359.75
  Q 369.54 357.07 364.97 355.95
  A 1.04 1.04 0.0 0 0 363.69 357.08
  C 364.73 366.26 371.09 372.55 380.16 373.45
  Q 383.59 373.79 387.05 373.46
  Z
  M 491.59 424.70
  C 491.98 421.74 493.93 419.67 494.94 417.67
  C 501.29 405.09 503.07 393.64 505.12 378.69
  Q 505.64 374.96 506.17 372.87
  C 507.48 367.75 510.48 364.05 512.97 359.78
  Q 513.39 359.05 512.67 359.50
  C 504.81 364.40 498.33 369.76 496.05 379.23
  C 495.87 379.96 495.38 380.04 495.31 380.91
  C 494.79 387.33 495.27 393.82 494.30 400.09
  C 493.31 406.48 492.42 412.43 489.69 418.87
  C 486.05 427.46 479.29 434.05 475.10 442.53
  Q 472.08 448.63 469.37 454.53
  A 0.61 0.61 0.0 0 0 470.39 455.18
  C 472.77 452.33 475.28 449.78 477.46 446.91
  Q 483.37 439.12 487.76 435.51
  Q 491.26 432.64 498.33 429.51
  C 505.82 426.19 509.37 419.61 511.38 412.05
  Q 512.41 408.16 512.49 401.29
  Q 512.59 392.84 512.91 384.43
  A 0.05 0.05 0.0 0 0 512.81 384.42
  C 509.62 398.77 506.66 412.46 495.47 422.99
  Q 493.69 424.67 492.26 425.23
  Q 491.48 425.54 491.59 424.70
  Z
  M 371.14 389.32
  Q 373.16 388.76 374.87 388.38
  A 0.81 0.81 0.0 0 0 375.05 386.86
  Q 368.98 383.89 363.47 380.36
  C 359.34 377.71 354.58 373.68 350.00 370.50
  Q 347.77 368.95 346.47 370.94
  A 2.56 2.56 0.0 0 1 345.74 371.67
  L 342.22 373.93
  A 1.41 1.40 48.6 0 0 342.08 376.19
  Q 347.46 380.71 352.78 384.25
  C 359.23 388.55 364.03 391.30 371.14 389.32
  Z
  M 454.46 394.47
  A 0.23 0.23 0.0 0 0 454.21 394.09
  C 443.14 397.92 437.61 406.41 432.25 417.49
  Q 432.08 417.84 432.47 417.86
  L 441.38 418.39
  A 0.51 0.50 7.4 0 0 441.90 418.00
  Q 445.02 404.51 454.46 394.47
  Z
  M 372.00 435.34
  Q 372.69 437.91 372.57 440.54
  Q 372.41 444.10 372.52 445.49
  Q 372.93 450.76 372.57 456.02
  Q 372.26 460.47 371.63 466.50
  Q 370.04 481.53 363.13 495.24
  A 1.00 1.00 0.0 0 0 364.02 496.68
  L 373.98 496.68
  A 1.67 1.65 -80.3 0 0 375.54 495.56
  C 381.38 478.75 383.65 463.68 386.35 443.50
  C 387.47 435.15 389.42 426.96 391.08 418.69
  Q 391.17 418.25 390.72 418.25
  Q 369.59 418.65 348.83 422.72
  A 0.77 0.77 0.0 0 0 348.59 424.14
  Q 359.01 430.17 370.09 434.90
  Q 370.56 435.10 371.05 434.97
  Q 371.18 434.94 371.31 434.91
  Q 371.85 434.81 372.00 435.34
  Z
  M 1063.99 444.78
  A 0.13 0.12 70.0 0 0 1063.89 445.00
  Q 1073.19 452.33 1082.58 459.61
  C 1096.67 470.53 1111.37 479.02 1127.17 486.61
  A 0.90 0.90 0.0 0 0 1128.46 485.81
  C 1128.51 482.24 1117.71 475.76 1114.33 473.68
  Q 1088.24 457.62 1065.60 445.26
  Q 1065.17 445.03 1064.70 444.93
  L 1063.99 444.78
  Z
  M 1060.41 459.29
  Q 1071.60 468.34 1083.00 477.10
  C 1092.19 484.17 1101.90 490.41 1111.65 496.60
  Q 1117.40 500.26 1124.01 501.92
  Q 1126.49 502.54 1126.30 500.68
  A 1.30 1.29 -71.4 0 0 1125.90 499.87
  C 1118.24 492.81 1107.96 485.84 1100.26 481.49
  Q 1080.18 470.18 1060.41 458.63
  A 0.36 0.36 0.0 0 0 1059.89 459.07
  Q 1059.94 459.20 1060.10 459.19
  Q 1060.28 459.18 1060.41 459.29
  Z
  M 1107.02 506.43
  Q 1105.66 503.48 1102.92 501.62
  Q 1099.26 499.13 1095.50 496.80
  C 1086.88 491.46 1076.83 487.23 1068.33 482.89
  Q 1063.38 480.36 1067.85 483.66
  Q 1075.94 489.63 1083.82 495.53
  C 1090.90 500.84 1097.42 504.74 1104.86 508.58
  Q 1105.96 509.15 1106.99 508.46
  Q 1107.73 507.96 1107.02 506.43
  Z
  M 1082.92 511.00
  Q 1064.90 500.70 1046.06 492.81
  A 0.33 0.33 0.0 0 0 1045.75 493.39
  C 1054.41 499.17 1062.92 505.67 1071.38 510.77
  Q 1080.58 516.32 1090.05 521.88
  A 0.88 0.88 0.0 0 0 1091.38 521.13
  L 1091.43 516.60
  Q 1091.43 516.08 1090.99 515.81
  Q 1086.96 513.32 1082.92 511.00
  Z
  M 1051.35 556.98
  Q 1050.00 554.49 1048.62 549.85
  C 1046.28 541.98 1038.95 540.39 1031.51 539.05
  C 1029.52 538.70 1028.70 538.86 1028.16 540.92
  Q 1023.71 557.75 1022.85 570.24
  Q 1022.54 574.86 1026.20 579.33
  A 1.00 0.99 70.7 0 0 1026.98 579.71
  C 1032.32 579.80 1037.04 579.88 1042.66 579.09
  Q 1053.17 577.61 1060.51 578.42
  Q 1069.81 579.44 1082.38 584.35
  Q 1083.64 584.84 1085.74 585.06
  C 1088.47 585.34 1090.40 586.83 1093.05 586.83
  Q 1100.35 586.83 1107.46 585.02
  Q 1109.92 584.39 1110.74 582.79
  Q 1111.91 580.48 1109.99 578.21
  C 1102.27 569.04 1088.57 560.95 1077.93 553.78
  A 1.82 1.82 0.0 0 1 1077.62 551.02
  Q 1082.48 545.83 1085.77 539.54
  Q 1086.69 537.78 1084.72 538.05
  L 1060.37 541.45
  Q 1059.12 541.63 1059.65 542.78
  L 1062.89 549.78
  A 2.31 2.30 -25.3 0 1 1061.79 552.83
  L 1052.41 557.32
  A 0.81 0.80 62.6 0 1 1051.35 556.98
  Z
  M 1015.02 553.52
  C 1015.22 549.76 1012.43 544.19 1010.18 540.75
  A 0.26 0.26 0.0 0 0 1009.70 540.94
  C 1011.28 550.19 1007.63 558.13 1004.48 566.49
  Q 1004.00 567.74 1005.34 567.82
  C 1008.35 567.99 1010.57 565.76 1011.96 563.08
  Q 1014.81 557.65 1015.02 553.52
  Z
  M 1000.62 546.39
  Q 1000.98 545.74 1000.89 545.03
  A 0.25 0.25 0.0 0 0 1000.41 544.96
  L 995.75 555.20
  Q 995.61 555.51 995.93 555.42
  L 997.09 555.08
  A 0.79 0.77 -78.5 0 0 997.50 554.80
  Q 1000.02 551.53 1000.32 547.43
  Q 1000.36 546.88 1000.62 546.39
  Z
  M 1148.02 693.48
  Q 1145.68 687.97 1143.23 682.50
  C 1141.82 679.33 1139.92 677.73 1136.95 676.37
  Q 1128.58 672.55 1120.02 669.17
  C 1117.15 668.04 1114.36 667.45 1111.37 666.85
  Q 1109.74 666.53 1111.16 667.38
  C 1114.06 669.12 1116.96 670.74 1119.75 672.83
  C 1124.55 676.41 1130.31 679.97 1134.43 683.07
  Q 1141.56 688.43 1148.17 694.35
  A 0.20 0.20 0.0 0 0 1148.49 694.28
  Q 1148.60 694.01 1148.37 693.87
  Q 1148.13 693.73 1148.02 693.48
  Z
  M 1054.07 697.69
  C 1052.29 691.19 1049.77 685.28 1047.38 679.02
  Q 1045.48 674.07 1040.93 676.30
  A 1.85 1.85 0.0 0 0 1039.98 678.53
  Q 1046.55 699.25 1054.29 718.33
  Q 1055.53 721.36 1056.52 724.57
  A 0.20 0.19 40.2 0 0 1056.90 724.54
  C 1057.67 717.72 1058.14 710.24 1055.89 703.59
  Q 1054.79 700.35 1054.07 697.69
  Z
  M 763.86 681.31
  L 752.79 683.16
  A 0.76 0.75 13.3 0 0 752.31 683.45
  Q 748.15 689.15 743.74 694.65
  C 740.76 698.38 739.21 702.40 737.08 706.57
  Q 736.70 707.30 737.52 707.26
  Q 740.97 707.07 744.03 705.39
  Q 746.22 704.18 748.94 701.01
  Q 757.66 690.88 766.97 681.23
  A 0.45 0.45 0.0 0 0 766.69 680.47
  Q 765.70 680.38 764.91 680.90
  Q 764.42 681.22 763.86 681.31
  Z
  M 1051.92 770.95
  Q 1047.27 781.35 1045.53 786.18
  A 0.55 0.55 0.0 0 0 1046.03 786.92
  C 1048.79 787.02 1050.74 786.36 1052.40 783.93
  Q 1057.02 777.15 1060.58 769.78
  C 1062.59 765.63 1065.53 761.33 1067.45 756.77
  C 1069.76 751.29 1069.06 744.19 1068.51 738.40
  A 0.41 0.41 0.0 0 0 1067.72 738.30
  Q 1066.43 741.79 1064.76 744.88
  Q 1057.85 757.68 1051.92 770.95
  Z
  M 1057.31 794.73
  Q 1054.92 800.40 1053.43 806.47
  Q 1053.23 807.30 1053.91 806.78
  Q 1056.70 804.67 1059.13 800.87
  Q 1065.36 791.15 1069.56 783.01
  C 1072.72 776.89 1074.77 770.72 1076.38 764.13
  A 0.57 0.56 -17.9 0 0 1075.40 763.63
  C 1067.56 772.96 1061.99 783.58 1057.31 794.73
  Z
  M 1048.39 841.75
  Q 1048.26 842.04 1048.51 841.83
  C 1057.99 833.75 1064.73 823.83 1068.54 811.98
  Q 1069.93 807.65 1071.34 803.33
  Q 1071.49 802.86 1071.37 802.39
  L 1069.56 795.23
  A 0.65 0.64 -39.8 0 0 1068.35 795.12
  Q 1063.74 804.98 1059.68 815.08
  Q 1054.47 828.05 1048.39 841.75
  Z
  M 1074.81 811.35
  Q 1072.84 803.27 1072.98 811.59
  C 1073.09 818.04 1069.91 826.14 1066.70 832.86
  C 1063.70 839.11 1059.14 845.95 1055.43 852.49
  A 0.34 0.34 0.0 0 0 1055.90 852.95
  C 1066.42 846.58 1076.21 834.63 1077.34 822.06
  Q 1077.72 817.77 1077.10 816.48
  Q 1074.97 812.03 1074.81 811.35
  Z
  M 1078.93 871.75
  Q 1076.83 873.24 1073.85 875.84
  Q 1039.04 906.12 1023.20 949.55
  A 0.43 0.43 0.0 0 0 1023.96 949.94
  L 1079.17 871.99
  Q 1079.76 871.16 1078.93 871.75
  Z
  M 281.41 904.32
  Q 289.75 925.90 295.77 937.74
  Q 309.82 965.37 334.11 984.61
  Q 334.55 984.95 334.93 985.13
  A 0.30 0.30 0.0 0 0 335.31 984.69
  C 326.63 971.27 316.79 957.65 308.46 945.18
  C 298.45 930.18 289.38 916.62 280.46 899.35
  A 0.35 0.34 -66.1 0 0 279.82 899.60
  Q 280.30 901.44 281.41 904.32
  Z
  M 1056.77 923.20
  Q 1057.27 922.42 1057.34 921.78
  A 1.04 1.03 66.6 0 0 1055.48 921.04
  C 1053.48 923.77 1050.52 926.08 1048.76 928.26
  Q 1037.70 941.94 1034.40 958.60
  Q 1034.08 960.21 1035.09 958.92
  Q 1046.00 945.08 1053.67 930.46
  C 1054.45 928.97 1055.14 925.74 1056.77 923.20
  Z
  M 918.85 930.78
  Q 916.83 939.79 915.33 948.29
  Q 915.32 948.36 914.57 954.39
  Q 913.67 961.54 909.78 967.77
  C 906.72 972.67 898.07 985.33 898.95 990.91
  Q 900.01 997.64 901.34 1002.64
  Q 905.52 1018.36 911.80 1038.33
  C 912.12 1039.35 911.91 1041.15 912.74 1042.00
  Q 913.30 1042.59 913.34 1041.77
  Q 913.68 1034.29 914.11 1026.82
  C 914.29 1023.60 913.53 1019.04 912.49 1016.02
  Q 909.55 1007.48 907.17 998.78
  Q 906.04 994.61 906.34 991.60
  C 907.20 982.94 914.72 974.05 918.90 964.52
  Q 921.19 959.29 921.55 957.27
  Q 923.07 948.70 920.36 937.08
  C 919.92 935.20 920.10 932.72 919.21 930.74
  Q 918.97 930.21 918.85 930.78
  Z
  M 444.64 1007.27
  Q 442.62 1005.99 440.64 1004.93
  A 0.22 0.22 0.0 0 0 440.39 1005.30
  Q 448.22 1011.93 456.03 1018.19
  Q 472.44 1031.37 491.26 1040.63
  C 495.95 1042.93 501.13 1044.78 506.11 1046.62
  Q 506.62 1046.82 506.55 1046.27
  Q 506.47 1045.67 505.85 1045.34
  C 499.55 1041.97 493.02 1037.53 488.37 1034.65
  Q 466.44 1021.07 444.64 1007.27
  Z
  M 512.18 1065.87
  L 457.28 1030.61
  A 0.54 0.54 0.0 0 0 456.52 1031.32
  C 458.31 1034.62 460.05 1037.58 463.17 1039.98
  C 478.96 1052.10 495.41 1059.01 511.81 1066.54
  Q 516.82 1068.85 512.18 1065.87
  Z
  M 459.99 1050.71
  Q 460.80 1054.26 463.34 1056.69
  Q 470.95 1063.96 479.67 1069.84
  Q 494.69 1079.96 510.43 1088.88
  C 511.83 1089.68 513.48 1090.08 515.01 1090.50
  Q 517.20 1091.10 517.57 1089.08
  A 1.24 1.22 -58.6 0 0 517.35 1088.14
  Q 516.37 1086.83 514.37 1085.40
  Q 481.17 1061.61 471.43 1055.83
  Q 466.12 1052.67 460.77 1050.09
  A 0.55 0.55 0.0 0 0 459.99 1050.71
  Z
  M 496.92 1102.75
  Q 498.54 1103.74 499.04 1101.90
  Q 499.96 1098.55 496.67 1096.08
  Q 475.16 1079.99 452.88 1063.91
  Q 451.31 1062.78 451.17 1064.70
  Q 450.95 1067.70 451.77 1070.38
  A 1.59 1.54 10.4 0 0 452.34 1071.18
  Q 462.69 1078.84 472.94 1086.60
  C 481.26 1092.90 488.58 1097.68 496.92 1102.75
  Z
  M 485.38 1114.36
  L 488.21 1110.75
  A 0.40 0.40 0.0 0 0 488.14 1110.19
  L 468.87 1095.08
  A 19.11 2.64 38.1 0 0 452.20 1085.37
  L 452.14 1085.44
  A 19.11 2.64 38.1 0 0 465.55 1099.31
  L 484.82 1114.42
  A 0.40 0.40 0.0 0 0 485.38 1114.36
  Z
  M 471.6290 1119.9740
  A 0.35 0.35 0.0 0 0 471.6143 1119.4792
  L 454.8756 1103.7054
  A 0.35 0.35 0.0 0 0 454.3808 1103.7201
  L 453.7910 1104.3460
  A 0.35 0.35 0.0 0 0 453.8057 1104.8408
  L 470.5444 1120.6146
  A 0.35 0.35 0.0 0 0 471.0392 1120.5999
  L 471.6290 1119.9740
  Z
  M 617.97 1141.79
  C 618.99 1143.92 623.15 1144.07 624.88 1143.61
  Q 625.40 1143.48 625.61 1143.97
  Q 625.77 1144.32 626.05 1144.55
  Q 626.46 1144.88 627.26 1144.90
  Q 630.32 1144.98 634.91 1145.83
  Q 644.78 1147.65 657.22 1148.13
  Q 657.63 1148.15 657.90 1148.46
  Q 658.00 1148.57 658.09 1148.70
  Q 658.38 1149.08 658.86 1149.09
  Q 669.46 1149.33 680.06 1149.74
  C 680.70 1149.77 681.23 1150.21 681.75 1150.21
  Q 692.66 1150.19 703.58 1150.21
  C 707.47 1150.22 711.11 1149.41 715.26 1149.34
  Q 720.27 1149.25 725.20 1148.36
  C 727.77 1147.90 730.52 1147.99 733.51 1147.62
  Q 766.78 1143.46 795.70 1135.76
  Q 813.41 1131.05 830.15 1122.43
  Q 831.06 1121.97 830.04 1122.06
  C 823.95 1122.60 818.00 1123.20 811.68 1124.19
  Q 761.61 1132.10 725.00 1134.72
  Q 677.63 1138.12 606.99 1139.09
  Q 606.84 1139.09 606.81 1139.24
  Q 606.78 1139.37 606.75 1139.50
  Q 606.68 1139.90 607.08 1139.97
  Q 609.73 1140.43 615.72 1142.32
  Q 616.82 1142.68 617.56 1141.75
  Q 617.80 1141.45 617.97 1141.79
  Z
  M 909.33 1137.43
  Q 909.48 1137.54 909.60 1137.70
  Q 909.75 1137.89 909.97 1137.77
  Q 910.11 1137.69 910.28 1137.65
  Q 910.77 1137.51 910.17 1137.48
  Q 900.39 1137.08 892.82 1137.58
  Q 879.95 1138.42 865.16 1140.19
  Q 856.60 1141.21 845.39 1143.08
  Q 819.59 1147.38 793.84 1151.99
  C 776.90 1155.02 759.43 1157.33 742.27 1160.32
  Q 730.71 1162.33 719.78 1166.42
  Q 719.28 1166.61 719.80 1166.70
  Q 742.42 1170.52 765.22 1169.33
  C 770.90 1169.03 777.88 1167.89 784.25 1167.41
  C 785.54 1167.31 786.40 1166.70 787.61 1166.62
  Q 796.23 1166.03 802.50 1164.74
  Q 807.14 1163.79 811.06 1163.47
  Q 812.71 1163.34 815.87 1162.50
  Q 818.18 1161.88 820.63 1162.11
  Q 821.12 1162.15 821.57 1161.95
  Q 823.25 1161.19 827.12 1160.63
  Q 842.14 1158.46 863.50 1152.81
  Q 870.18 1151.04 884.79 1146.65
  C 893.25 1144.11 901.11 1140.79 909.17 1137.41
  Q 909.25 1137.38 909.33 1137.43
  Z
  M 684.90 1193.69
  Q 688.87 1195.30 693.17 1194.75
  C 694.52 1194.58 695.73 1195.27 697.12 1195.26
  Q 700.24 1195.25 707.54 1196.10
  Q 713.64 1196.81 729.48 1195.66
  C 731.12 1195.54 732.77 1194.70 734.49 1194.75
  Q 741.31 1194.93 747.27 1193.55
  Q 748.90 1193.18 753.02 1192.98
  C 755.77 1192.86 757.96 1191.36 761.11 1191.80
  A 1.55 1.50 -54.8 0 0 762.06 1191.62
  C 764.52 1190.25 767.68 1190.37 769.50 1189.93
  Q 775.78 1188.41 781.97 1186.58
  C 784.24 1185.90 787.13 1184.38 790.03 1183.92
  A 0.53 0.53 0.0 0 0 790.22 1182.95
  Q 789.14 1182.27 787.75 1182.27
  Q 778.24 1182.23 768.74 1182.53
  Q 723.01 1183.94 677.25 1183.75
  C 675.38 1183.75 673.19 1184.22 671.22 1184.18
  Q 656.22 1183.87 641.18 1185.24
  Q 640.32 1185.32 641.09 1185.71
  Q 644.47 1187.42 648.32 1187.67
  Q 648.55 1187.68 648.73 1187.78
  Q 648.92 1187.89 649.10 1188.03
  Q 649.53 1188.35 650.05 1188.46
  Q 666.60 1192.08 683.45 1193.92
  Q 683.63 1193.94 683.80 1193.85
  L 684.04 1193.73
  Q 684.46 1193.51 684.90 1193.69
  Z
  M 722.45 1225.26
  Q 723.18 1224.92 722.43 1224.63
  L 721.64 1224.32
  A 0.38 0.38 0.0 0 0 721.20 1224.91
  Q 721.73 1225.59 722.45 1225.26
  Z
  M 791.93 1244.91
  L 785.31 1245.64
  A 0.14 0.14 0.0 0 0 785.18 1245.79
  L 785.18 1245.79
  A 3.32 1.20 -6.3 0 0 788.61 1246.62
  L 788.91 1246.59
  A 3.32 1.20 -6.3 0 0 792.08 1245.03
  L 792.08 1245.03
  A 0.14 0.14 0.0 0 0 791.93 1244.91
  Z"
/>
<g>
<path fill="#000000" d="
  M 735.12 227.20
  C 734.45 230.18 733.54 233.22 731.38 235.36
  A 2.25 2.23 -49.4 0 1 728.50 235.59
  L 722.51 231.31
  A 0.94 0.94 0.0 0 1 722.12 230.63
  C 721.42 223.84 728.78 224.22 733.21 224.46
  Q 735.71 224.60 735.12 227.20
  Z"
/>
<path fill="#000000" d="
  M 839.99 229.08
  C 842.53 229.37 844.97 230.50 848.10 230.69
  C 851.14 230.88 853.58 232.17 856.88 231.98
  Q 857.37 231.96 857.47 232.43
  L 857.58 232.90
  Q 857.68 233.38 857.20 233.37
  Q 826.75 233.09 796.42 230.43
  Q 795.86 230.38 795.99 229.83
  Q 797.22 224.91 801.78 225.39
  C 806.58 225.90 811.44 225.89 816.26 226.12
  Q 821.38 226.38 828.14 227.45
  Q 834.05 228.39 839.99 229.08
  Z"
/>
<path fill="#000000" d="
  M 672.13 260.88
  Q 672.22 255.48 672.02 252.93
  Q 671.98 252.44 672.19 251.99
  Q 673.60 248.95 675.06 247.31
  Q 682.94 238.52 691.25 231.38
  Q 692.58 230.24 693.60 231.65
  C 700.68 241.39 708.24 250.49 716.94 258.74
  Q 719.93 261.57 722.09 264.66
  A 2.94 2.93 -52.8 0 1 722.45 267.33
  C 720.96 271.47 720.99 274.70 720.78 280.27
  Q 720.42 289.94 721.57 299.55
  C 721.71 300.72 722.58 303.03 722.44 304.81
  Q 722.40 305.35 721.88 305.50
  Q 714.59 307.51 707.53 310.02
  C 702.87 311.68 699.11 313.61 695.68 317.40
  Q 691.62 321.90 688.31 326.97
  A 2.62 2.61 -70.8 0 1 685.89 328.14
  Q 675.02 327.10 663.75 328.86
  C 661.56 329.20 657.91 328.69 655.93 330.86
  Q 645.91 341.86 636.99 353.73
  C 633.78 358.00 629.56 362.47 626.19 367.18
  A 1.88 1.88 0.0 0 1 623.63 367.66
  C 615.91 362.57 610.44 357.70 607.62 348.55
  A 1.50 1.47 -44.4 0 1 607.64 347.63
  C 608.41 345.36 610.17 343.53 611.05 341.73
  Q 616.89 329.74 622.78 317.77
  C 625.89 311.45 631.04 307.55 637.81 302.97
  Q 655.06 291.27 668.44 277.44
  C 672.27 273.48 672.02 266.75 672.13 260.88
  Z
  M 706.57 281.25
  Q 691.92 289.79 677.17 298.16
  Q 669.09 302.74 662.88 309.63
  A 0.67 0.67 0.0 0 0 663.68 310.67
  Q 668.65 308.16 674.19 305.86
  Q 684.80 301.46 694.83 295.90
  Q 701.28 292.32 704.97 288.64
  Q 709.46 284.16 712.66 278.64
  A 0.37 0.36 -88.7 0 0 712.18 278.13
  Q 709.37 279.61 706.57 281.25
  Z"
/>
<path fill="#000000" d="
  M 563.99 583.86
  Q 573.25 585.48 576.99 586.76
  Q 579.62 587.66 581.78 587.96
  Q 584.37 588.33 586.55 588.90
  C 588.97 589.54 591.35 589.37 593.78 589.94
  Q 596.52 590.59 600.74 590.89
  Q 624.18 592.58 634.25 591.64
  Q 644.66 590.66 655.09 589.60
  Q 663.74 588.71 669.52 587.67
  Q 671.29 587.35 676.02 586.60
  Q 678.55 586.20 682.50 585.45
  Q 703.73 581.40 715.28 578.63
  Q 737.38 573.34 759.34 567.11
  A 0.91 0.90 83.3 0 1 760.49 568.02
  Q 760.45 568.80 759.53 569.25
  Q 738.16 579.69 716.53 586.30
  Q 701.14 591.00 679.72 596.59
  Q 660.35 601.64 640.78 607.54
  A 0.43 0.43 0.0 0 0 640.88 608.38
  Q 654.71 609.40 668.81 609.35
  C 674.57 609.33 680.54 608.34 686.47 607.80
  Q 688.28 607.63 691.45 606.91
  C 693.61 606.42 696.32 606.23 698.17 605.91
  Q 722.23 601.72 738.49 596.48
  Q 748.30 593.32 758.19 590.44
  C 759.74 589.99 762.22 588.87 764.33 588.73
  A 0.91 0.89 70.6 0 1 765.12 589.12
  L 774.79 603.55
  A 1.11 1.10 -33.1 0 1 774.46 605.10
  C 756.56 616.42 736.33 624.93 716.50 633.79
  A 0.38 0.38 0.0 0 0 716.58 634.51
  Q 727.22 636.52 737.97 638.20
  Q 742.01 638.83 748.10 638.87
  Q 753.25 638.91 758.39 639.35
  A 0.56 0.55 19.2 0 1 758.81 640.21
  Q 757.78 641.75 756.04 642.05
  Q 753.44 642.48 753.09 642.62
  Q 709.49 659.70 664.22 671.66
  Q 651.74 674.96 639.26 678.26
  Q 634.81 679.44 630.42 680.85
  Q 629.65 681.10 630.45 681.23
  Q 633.97 681.79 637.50 681.79
  Q 651.76 681.76 666.01 681.21
  C 667.37 681.16 668.00 680.21 669.24 680.27
  Q 672.77 680.43 676.18 679.72
  Q 681.37 678.65 682.95 678.37
  Q 688.49 677.41 693.58 674.86
  C 694.12 674.59 694.78 674.66 695.33 674.78
  A 0.36 0.36 0.0 0 1 695.54 675.34
  C 688.94 684.44 685.66 695.15 683.55 706.04
  Q 683.20 707.87 683.17 711.00
  C 683.15 713.28 682.75 715.74 682.69 717.66
  Q 682.41 727.39 684.88 737.44
  A 0.61 0.61 0.0 0 0 686.07 737.42
  Q 689.51 719.77 693.97 702.15
  Q 697.33 688.85 700.39 683.29
  Q 705.48 674.02 714.37 667.98
  A 0.86 0.86 0.0 0 1 715.52 669.22
  Q 708.44 678.15 703.59 687.62
  Q 700.36 693.91 701.23 703.74
  Q 703.48 729.32 703.09 736.50
  Q 702.81 741.76 699.36 760.03
  Q 698.96 762.20 698.48 767.28
  C 698.17 770.60 697.23 773.71 697.24 776.94
  C 697.26 781.36 696.65 786.15 698.32 790.32
  Q 708.48 815.71 724.68 833.80
  Q 738.25 848.95 751.81 864.08
  Q 753.64 866.11 755.81 867.06
  Q 758.15 868.08 760.60 868.82
  Q 770.01 871.68 782.53 874.70
  Q 784.08 875.07 785.24 874.81
  Q 792.77 873.16 800.51 873.59
  Q 801.75 873.66 803.51 872.38
  A 1.29 1.27 -59.4 0 1 804.42 872.14
  C 808.39 872.68 811.65 871.28 815.28 871.17
  Q 819.10 871.06 822.81 870.22
  Q 824.96 869.74 828.21 869.56
  C 830.92 869.40 833.57 868.37 835.96 868.15
  Q 839.16 867.85 842.36 867.76
  Q 842.87 867.74 843.30 867.48
  C 847.03 865.21 860.97 872.70 864.78 874.76
  Q 865.26 875.02 865.23 875.56
  C 865.15 877.36 864.53 879.49 864.37 880.86
  Q 862.29 897.74 861.32 914.74
  Q 861.29 915.23 861.59 915.63
  Q 869.40 925.70 876.30 936.40
  Q 878.48 939.78 879.23 943.43
  A 1.12 1.12 0.0 0 1 878.48 944.72
  C 845.45 955.71 811.78 964.83 778.60 975.51
  C 775.51 976.51 772.42 977.87 769.33 979.06
  A 0.51 0.51 0.0 0 0 769.20 979.94
  Q 769.56 980.22 770.26 980.28
  Q 781.89 981.25 793.55 981.05
  C 799.22 980.96 805.31 980.01 811.25 979.46
  C 814.33 979.18 818.95 977.94 823.16 978.34
  Q 823.66 978.39 824.10 978.15
  C 826.85 976.61 829.79 977.12 832.26 976.56
  Q 835.13 975.91 838.01 975.38
  C 846.09 973.90 854.16 971.38 862.15 969.42
  C 863.72 969.04 864.91 967.95 867.06 968.73
  Q 867.67 968.95 867.46 969.56
  Q 867.11 970.54 866.33 971.24
  Q 865.94 971.58 865.73 972.05
  Q 862.11 980.04 862.22 985.99
  Q 862.29 989.44 864.38 999.23
  Q 869.67 1023.97 873.47 1038.04
  Q 875.22 1044.53 875.89 1048.55
  A 0.69 0.69 0.0 0 1 875.39 1049.33
  C 860.84 1053.17 845.80 1057.74 831.79 1060.87
  C 794.41 1069.22 756.64 1074.98 718.25 1075.06
  C 715.94 1075.06 712.98 1076.05 710.56 1076.01
  Q 695.27 1075.81 679.98 1075.52
  Q 676.32 1075.45 670.03 1075.01
  Q 665.06 1074.67 660.06 1074.58
  Q 654.47 1074.48 648.98 1073.91
  C 644.06 1073.41 638.58 1073.16 634.20 1072.72
  C 611.58 1070.44 591.74 1067.65 570.19 1062.48
  Q 569.56 1062.33 568.28 1062.38
  Q 567.03 1062.42 566.38 1061.76
  A 1.30 1.30 0.0 0 1 567.35 1059.55
  Q 572.44 1059.70 577.10 1058.91
  Q 585.18 1057.55 585.47 1057.51
  Q 595.25 1056.02 604.11 1051.47
  C 608.31 1049.32 611.30 1044.19 613.81 1039.42
  C 617.88 1031.69 619.03 1024.81 618.59 1016.25
  C 618.37 1012.10 623.79 1014.04 626.13 1014.06
  C 628.42 1014.08 632.22 1013.38 635.38 1013.72
  Q 638.78 1014.09 639.91 1014.10
  Q 655.95 1014.25 672.00 1013.69
  Q 675.14 1013.58 678.22 1013.07
  Q 681.40 1012.55 684.38 1012.34
  C 688.54 1012.05 692.43 1010.91 696.56 1010.61
  C 698.31 1010.49 699.58 1009.76 701.18 1009.63
  Q 702.89 1009.49 704.60 1009.37
  Q 705.79 1009.29 707.82 1008.46
  Q 709.92 1007.60 712.34 1007.99
  A 1.17 1.16 -61.5 0 0 713.29 1007.70
  Q 714.78 1006.30 716.82 1006.54
  Q 717.22 1006.59 717.61 1006.47
  L 726.50 1003.80
  A 0.49 0.49 0.0 0 0 726.41 1002.84
  C 721.59 1002.33 716.53 1001.52 712.19 1001.11
  Q 667.55 996.84 624.02 988.60
  Q 622.99 988.40 623.49 987.49
  Q 632.67 970.80 640.89 955.88
  Q 646.02 946.59 651.21 933.48
  C 651.55 932.62 651.32 930.68 650.86 929.62
  C 648.28 923.66 645.87 916.86 640.27 913.16
  Q 639.14 912.41 631.19 908.98
  C 598.98 895.10 567.42 879.78 540.42 857.01
  Q 539.96 856.62 539.96 856.02
  L 539.99 854.03
  Q 539.99 853.36 540.60 853.65
  C 560.39 863.37 586.34 876.45 609.81 881.63
  Q 613.13 882.37 624.59 884.40
  C 627.51 884.92 632.24 885.10 636.00 885.89
  C 640.92 886.93 645.81 885.73 650.60 886.74
  Q 651.83 887.00 652.92 886.74
  A 0.60 0.60 0.0 0 0 652.96 885.58
  Q 629.90 878.21 607.81 870.27
  Q 571.32 857.17 535.19 837.01
  Q 531.49 834.95 529.63 832.87
  Q 523.47 825.93 516.79 819.49
  C 511.40 814.28 505.00 809.94 498.69 805.30
  C 491.57 800.06 484.34 793.23 479.36 786.65
  C 475.44 781.46 472.74 777.60 467.67 773.66
  C 463.10 770.10 458.56 766.40 453.67 763.21
  Q 435.34 751.25 417.77 738.21
  C 417.13 737.74 416.41 736.45 416.16 735.54
  Q 412.19 721.27 409.29 706.92
  A 0.53 0.53 0.0 0 1 410.01 706.32
  Q 443.09 719.82 476.97 731.13
  Q 487.28 734.57 496.19 736.61
  Q 510.66 739.93 525.33 742.14
  Q 525.38 742.14 528.16 742.23
  C 529.70 742.28 530.60 743.02 531.92 743.18
  C 552.17 745.65 571.17 746.88 591.44 746.13
  Q 592.45 746.09 591.53 745.68
  C 589.72 744.87 587.25 744.49 585.87 744.04
  C 570.09 738.82 553.64 735.67 537.49 731.80
  Q 486.31 719.53 442.45 698.80
  Q 414.99 685.83 387.37 665.25
  C 385.79 664.08 384.89 662.45 385.37 660.58
  A 0.79 0.79 0.0 0 1 386.47 660.06
  C 407.28 669.63 427.61 679.90 449.03 687.91
  Q 466.73 694.53 485.22 697.29
  A 0.24 0.23 65.5 0 0 485.38 696.86
  Q 479.25 692.81 473.10 688.81
  C 462.90 682.17 451.93 676.47 441.27 670.48
  Q 417.72 657.25 395.67 641.64
  Q 395.26 641.35 394.78 641.20
  L 391.79 640.31
  A 1.03 1.02 -81.6 0 1 391.07 639.33
  L 391.01 630.27
  A 0.97 0.96 -76.6 0 1 392.41 629.40
  Q 414.58 640.83 437.06 650.68
  Q 464.73 662.81 499.36 669.30
  Q 501.39 669.68 505.70 670.13
  Q 508.87 670.47 512.01 671.10
  Q 519.20 672.55 526.09 672.60
  A 0.40 0.39 56.3 0 0 526.24 671.84
  Q 508.62 664.62 490.94 657.59
  C 480.11 653.29 469.44 648.06 457.74 642.79
  Q 442.33 635.85 425.54 625.89
  C 416.49 620.52 405.45 612.63 395.16 606.32
  Q 394.68 606.02 394.64 605.47
  L 394.39 601.35
  A 1.19 1.18 -79.1 0 1 396.08 600.20
  Q 421.73 612.45 447.22 624.33
  Q 474.35 636.98 503.20 644.20
  A 0.32 0.32 0.0 0 0 503.48 643.65
  Q 487.94 630.81 471.36 620.15
  Q 442.12 601.35 412.80 581.65
  A 1.12 1.12 0.0 0 1 413.57 579.61
  L 420.18 580.48
  A 0.62 0.57 -47.7 0 0 420.50 580.45
  C 425.03 578.79 428.97 580.33 434.38 581.73
  Q 438.29 582.75 442.31 584.37
  C 458.77 590.98 474.53 596.22 492.03 599.33
  Q 495.21 599.89 493.02 597.53
  Q 491.57 595.95 488.58 593.69
  Q 467.42 577.71 444.56 564.26
  Q 444.10 563.98 444.25 563.46
  L 448.11 549.93
  A 1.01 1.01 0.0 0 1 449.37 549.24
  Q 461.70 552.99 474.30 555.95
  C 478.69 556.98 483.60 557.16 488.30 558.01
  C 492.26 558.73 496.18 558.29 500.22 558.79
  A 0.16 0.16 0.0 0 0 500.32 558.50
  L 467.73 539.37
  A 1.05 1.05 0.0 0 1 467.79 537.53
  Q 472.22 535.30 473.81 530.61
  A 0.57 0.57 0.0 0 1 474.55 530.26
  Q 487.97 535.20 501.80 538.19
  Q 501.89 538.21 506.11 539.49
  Q 508.42 540.19 510.93 539.95
  A 1.37 1.37 0.0 0 1 511.81 540.18
  C 514.81 542.16 517.41 540.35 520.54 542.36
  Q 520.96 542.63 521.46 542.61
  Q 524.20 542.48 526.79 543.10
  Q 530.19 543.90 531.98 544.06
  C 536.07 544.43 540.16 545.51 544.04 545.73
  Q 551.15 546.12 557.90 546.60
  Q 561.37 546.85 558.27 545.26
  Q 535.83 533.75 512.36 524.55
  A 0.54 0.53 -59.2 0 1 512.15 523.70
  Q 512.93 522.76 514.20 522.76
  Q 514.67 522.76 515.07 522.51
  Q 522.87 517.78 531.40 514.51
  Q 531.88 514.33 532.36 514.50
  Q 538.06 516.53 544.08 517.33
  Q 545.01 517.45 547.77 518.42
  Q 549.68 519.10 551.85 518.63
  Q 552.36 518.53 552.82 518.77
  C 556.09 520.48 559.63 519.98 563.20 521.11
  C 564.96 521.67 566.53 521.14 568.23 521.57
  Q 573.05 522.78 582.25 523.58
  Q 601.65 525.29 612.09 525.40
  Q 612.11 525.40 614.63 525.10
  C 615.89 524.95 616.89 525.50 618.12 525.41
  Q 629.97 524.55 640.66 523.86
  Q 642.89 523.71 640.69 523.29
  Q 604.56 516.40 569.45 506.99
  Q 560.95 504.71 552.63 503.01
  A 0.53 0.52 50.7 0 1 552.73 501.97
  C 563.20 502.01 574.12 502.51 584.01 500.83
  Q 595.25 498.91 609.02 494.95
  Q 614.25 493.45 616.43 492.71
  A 1.11 1.09 88.1 0 0 617.13 491.95
  Q 617.52 490.47 617.25 489.00
  Q 615.27 478.43 613.62 467.79
  Q 613.61 467.72 612.68 462.74
  C 612.10 459.63 612.09 456.36 611.57 453.45
  C 608.81 438.01 610.55 423.49 610.67 411.10
  C 610.72 406.66 611.60 402.23 611.56 397.68
  A 0.77 0.76 78.2 0 1 612.01 396.98
  Q 613.93 396.10 615.23 397.41
  Q 615.58 397.76 616.05 397.90
  Q 624.38 400.40 632.85 402.41
  C 636.61 403.31 640.32 402.95 644.18 402.98
  A 1.52 1.49 -62.6 0 0 645.12 402.67
  Q 648.55 400.04 650.78 395.52
  Q 656.70 383.52 666.38 366.71
  C 667.30 365.10 668.55 363.95 669.71 362.50
  C 671.10 360.76 672.37 359.88 674.40 361.06
  Q 674.83 361.31 675.33 361.30
  Q 684.35 361.13 693.29 360.39
  C 695.27 360.23 697.15 359.11 699.26 358.80
  C 705.82 357.86 714.94 345.80 718.95 340.72
  C 720.42 338.85 721.96 339.48 723.76 339.22
  Q 730.61 338.26 737.03 338.08
  A 1.04 1.04 0.0 0 1 738.01 339.54
  Q 732.88 350.98 738.09 362.25
  Q 743.84 374.69 754.02 380.45
  Q 761.38 384.62 771.04 384.59
  Q 774.29 384.58 778.80 383.27
  C 782.18 382.29 785.76 381.52 788.91 380.20
  Q 801.82 374.78 810.73 367.69
  C 819.96 360.35 834.84 342.18 828.40 329.10
  C 823.23 318.58 813.38 312.84 802.24 310.06
  Q 784.68 305.68 766.77 302.98
  Q 761.35 302.16 755.49 300.96
  A 1.18 1.18 0.0 0 1 755.42 298.66
  Q 758.17 297.93 761.55 297.27
  Q 782.01 293.30 802.74 291.32
  C 805.90 291.01 807.79 289.32 810.18 287.56
  Q 810.77 287.13 810.07 286.92
  C 798.96 283.61 787.51 279.05 776.26 278.79
  Q 774.15 278.74 772.85 278.08
  Q 757.29 270.14 742.47 259.07
  A 1.13 1.13 0.0 0 1 742.74 257.12
  C 747.53 255.23 752.38 254.56 757.57 253.55
  Q 783.74 248.44 791.95 247.70
  Q 797.45 247.20 800.84 246.83
  Q 806.37 246.22 809.72 246.17
  C 824.43 245.93 839.03 245.29 853.75 246.16
  Q 857.11 246.36 860.43 245.82
  A 1.48 1.46 -35.9 0 1 861.34 245.96
  Q 863.09 246.85 863.67 246.88
  Q 879.06 247.72 894.23 250.37
  C 895.45 250.58 897.83 251.42 899.76 251.48
  Q 901.29 251.53 902.19 251.74
  Q 911.20 253.82 920.33 255.27
  C 923.15 255.72 926.10 257.23 929.46 257.25
  Q 929.95 257.25 930.40 257.48
  Q 930.70 257.63 931.02 257.71
  Q 947.71 261.75 963.09 269.46
  Q 963.99 269.91 963.69 270.99
  A 0.45 0.44 -77.0 0 1 963.19 271.31
  C 956.38 270.14 950.24 270.10 942.96 271.11
  Q 934.47 272.29 926.34 273.73
  A 1.31 1.31 0.0 0 0 925.60 275.91
  C 927.14 277.59 928.50 277.97 930.45 278.82
  Q 938.12 282.16 946.25 284.13
  C 948.21 284.61 950.24 285.80 952.96 285.41
  A 1.43 1.42 55.8 0 1 953.88 285.59
  C 956.34 287.05 958.87 286.62 961.29 287.30
  C 964.04 288.08 966.89 287.98 969.47 288.63
  Q 975.94 290.25 982.58 290.74
  C 985.66 290.97 988.41 291.89 991.69 292.58
  Q 992.44 292.74 992.42 293.42
  Q 992.41 293.97 991.87 293.87
  Q 988.59 293.25 987.50 293.29
  Q 975.96 293.73 964.59 295.52
  Q 954.48 297.11 945.24 300.41
  Q 921.71 308.79 902.36 323.61
  C 895.43 328.91 891.89 335.78 889.24 344.64
  Q 885.52 357.09 884.11 370.12
  A 1.81 1.78 80.5 0 1 883.12 371.54
  L 858.30 383.61
  Q 857.69 383.91 857.71 383.23
  L 858.58 348.88
  A 0.17 0.17 0.0 0 0 858.31 348.74
  Q 819.83 378.68 773.27 394.30
  Q 766.37 396.61 744.75 403.05
  C 725.96 408.64 706.46 411.61 687.77 417.51
  A 0.63 0.63 0.0 0 0 687.90 418.73
  Q 712.90 421.15 737.72 417.89
  Q 742.33 417.29 746.97 416.86
  C 749.94 416.58 753.21 415.29 756.61 415.29
  C 759.00 415.28 760.61 414.00 762.94 414.06
  C 765.31 414.13 767.41 413.09 769.35 412.78
  Q 782.59 410.73 795.35 406.72
  Q 795.87 406.56 796.08 407.05
  C 796.73 408.60 797.44 412.55 795.65 413.66
  Q 794.95 414.09 793.76 414.52
  Q 764.66 425.17 753.01 428.61
  Q 745.96 430.69 743.19 431.44
  A 0.29 0.29 0.0 0 0 743.22 432.00
  C 745.95 432.49 748.99 432.21 751.55 433.01
  C 752.92 433.45 754.23 433.93 755.74 433.88
  C 759.84 433.75 763.96 435.02 767.43 435.26
  Q 773.47 435.68 779.51 436.03
  Q 790.51 436.68 801.49 435.72
  A 0.52 0.52 0.0 0 1 802.02 436.40
  C 801.37 438.36 798.78 438.40 797.56 438.91
  Q 773.04 449.06 742.01 459.24
  Q 698.31 473.59 655.66 480.00
  C 654.37 480.19 653.27 481.01 651.72 480.97
  Q 651.33 480.97 651.34 481.36
  Q 651.35 481.49 651.47 481.59
  Q 651.64 481.73 651.86 481.71
  C 653.96 481.55 655.27 482.75 657.10 482.96
  Q 658.57 483.12 660.03 483.31
  C 662.01 483.55 663.70 484.68 665.92 484.78
  Q 668.36 484.89 669.06 485.01
  Q 680.04 486.90 687.25 486.40
  Q 691.63 486.10 694.60 486.05
  C 701.20 485.94 707.11 485.10 713.40 484.62
  Q 714.70 484.52 719.02 483.75
  C 721.61 483.29 724.20 483.54 726.63 483.07
  Q 735.29 481.43 744.03 480.18
  C 745.56 479.96 746.88 478.86 748.41 479.03
  Q 751.29 479.33 753.77 477.92
  Q 754.17 477.70 754.62 477.69
  L 758.26 477.64
  A 1.25 1.22 -64.8 0 0 759.01 477.36
  C 760.74 475.89 762.53 476.45 764.26 476.01
  Q 772.59 473.90 780.66 472.06
  A 1.00 1.00 0.0 0 1 781.86 473.23
  C 780.91 478.21 779.03 483.73 779.61 488.34
  Q 780.36 494.34 783.71 499.58
  A 1.97 1.97 0.0 0 1 782.96 502.38
  Q 767.03 510.74 750.53 518.77
  Q 727.85 529.82 696.98 540.32
  Q 689.36 542.92 677.88 546.21
  Q 660.65 551.16 643.47 556.40
  Q 643.30 556.45 643.47 556.49
  Q 650.90 558.13 658.47 559.12
  Q 664.02 559.86 670.06 559.93
  Q 678.35 560.03 681.70 559.42
  Q 685.24 558.78 687.42 558.59
  C 690.81 558.30 692.81 557.91 695.61 557.27
  C 697.85 556.76 701.09 557.04 703.75 555.66
  A 1.89 1.83 -56.4 0 1 704.72 555.45
  C 707.72 555.58 710.90 554.41 713.11 554.05
  Q 722.59 552.49 731.86 550.03
  C 733.29 549.65 735.16 550.05 736.43 548.93
  A 1.07 1.07 0.0 0 1 737.93 549.01
  Q 738.59 549.72 738.26 550.38
  Q 738.07 550.76 737.36 551.12
  Q 718.74 560.48 700.49 565.27
  Q 668.10 573.78 636.00 577.27
  Q 616.03 579.44 591.62 581.26
  C 589.35 581.43 583.84 581.44 579.96 581.97
  Q 577.59 582.29 575.09 582.32
  Q 569.62 582.37 563.99 583.66
  A 0.10 0.10 0.0 0 0 563.99 583.86
  Z
  M 907.94 288.59
  Q 908.13 288.54 908.21 288.02
  Q 908.27 287.66 907.43 287.13
  Q 905.01 285.57 902.33 284.49
  Q 888.65 278.99 874.48 275.06
  A 1.96 1.96 0.0 0 0 872.85 275.34
  L 852.04 289.54
  A 1.66 1.66 0.0 0 0 852.15 292.35
  C 853.42 293.08 854.77 293.54 856.35 293.73
  Q 862.44 294.44 868.58 294.68
  C 873.47 294.87 879.10 293.80 884.45 293.79
  Q 884.96 293.79 885.39 293.52
  C 887.88 291.94 889.54 292.82 891.99 292.35
  C 893.06 292.14 893.88 291.30 895.11 291.18
  Q 896.75 291.02 896.85 291.00
  Q 902.43 289.81 907.94 288.59
  Z
  M 667.79 645.39
  A 0.30 0.30 0.0 0 0 667.81 644.80
  Q 659.12 643.68 650.18 642.94
  Q 650.01 642.93 649.85 642.99
  Q 649.68 643.06 649.51 643.12
  Q 649.26 643.22 648.98 643.17
  Q 644.07 642.29 634.49 641.65
  Q 627.99 641.22 621.51 640.77
  Q 614.94 640.32 608.50 640.14
  Q 584.33 639.45 560.15 638.70
  C 554.82 638.54 545.72 638.62 538.50 638.09
  Q 534.10 637.77 529.74 638.37
  Q 529.16 638.45 528.60 638.28
  Q 527.55 637.95 526.48 638.08
  A 0.32 0.31 50.9 0 0 526.42 638.69
  Q 534.29 641.39 542.17 644.03
  C 543.85 644.60 545.72 644.30 547.56 645.66
  A 1.40 1.39 -28.3 0 0 548.51 645.94
  Q 551.32 645.71 553.73 647.06
  Q 554.19 647.33 554.73 647.31
  C 558.44 647.18 561.44 648.46 565.07 648.68
  Q 566.61 648.78 568.74 649.26
  Q 575.79 650.84 585.69 650.97
  C 587.45 650.99 589.09 651.52 590.80 651.86
  Q 592.13 652.12 594.68 651.99
  Q 596.53 651.90 598.98 652.12
  Q 602.67 652.46 612.98 652.20
  C 617.21 652.09 622.79 651.00 627.92 651.34
  Q 628.47 651.37 628.91 651.04
  Q 630.25 650.03 631.77 650.67
  Q 632.21 650.86 632.69 650.81
  Q 644.95 649.64 657.07 647.41
  C 659.60 646.94 664.02 645.68 667.79 645.39
  Z
  M 713.34 940.93
  C 716.18 942.49 719.51 942.35 722.05 944.12
  Q 722.48 944.42 723.00 944.33
  Q 725.99 943.79 728.45 945.46
  Q 728.89 945.76 729.41 945.68
  Q 732.76 945.13 735.68 946.72
  Q 736.15 946.97 736.69 946.95
  Q 739.73 946.83 742.72 947.46
  C 745.19 947.97 747.55 947.53 750.02 948.02
  Q 753.51 948.73 755.05 948.72
  Q 762.40 948.69 769.75 948.70
  Q 770.87 948.70 771.92 947.62
  A 1.16 1.12 22.0 0 1 772.76 947.28
  C 775.72 947.39 778.34 947.52 781.36 946.85
  Q 785.23 945.99 789.19 945.52
  Q 789.72 945.46 790.06 945.05
  Q 791.00 943.93 792.21 944.61
  Q 792.66 944.87 793.16 944.75
  C 795.72 944.17 797.81 944.44 800.31 943.44
  Q 803.30 942.25 806.48 941.73
  C 809.62 941.22 812.21 940.11 815.29 939.55
  A 0.62 0.62 0.0 0 0 815.62 938.51
  Q 815.17 938.05 814.00 938.03
  Q 790.75 937.72 767.50 937.14
  Q 756.18 936.86 753.13 937.36
  Q 750.30 937.83 742.00 938.10
  Q 727.35 938.57 713.03 940.87
  Q 712.97 940.88 713.04 940.88
  Q 713.05 940.88 713.15 940.88
  Q 713.25 940.88 713.34 940.93
  Z
  M 857.12 1014.88
  Q 854.39 1003.01 852.19 984.01
  Q 852.10 983.29 851.57 983.79
  C 848.89 986.27 845.86 985.70 842.53 986.31
  Q 841.98 986.41 842.03 986.96
  Q 844.25 1012.92 850.98 1038.10
  A 1.52 1.52 0.0 0 0 852.88 1039.17
  Q 857.28 1037.91 861.71 1038.69
  A 0.67 0.67 0.0 0 0 862.48 1037.88
  Q 859.77 1026.35 857.12 1014.88
  Z"
/>
<path fill="#000000" d="
  M 525.42 293.82
  C 531.37 293.29 534.86 287.16 538.12 281.83
  Q 538.38 281.40 538.84 281.23
  Q 541.88 280.10 543.25 280.12
  Q 561.62 280.37 579.97 279.72
  Q 583.75 279.59 586.44 278.30
  Q 591.69 275.80 595.55 271.54
  A 1.14 1.14 0.0 0 1 597.21 271.51
  C 601.70 276.13 612.10 285.50 609.86 292.91
  C 607.58 300.48 597.13 309.14 590.46 314.24
  Q 585.31 318.18 579.44 318.63
  Q 578.94 318.67 578.60 319.04
  Q 577.40 320.35 576.73 321.99
  Q 572.50 332.25 568.73 342.67
  A 1.68 1.67 29.5 0 1 566.09 343.40
  C 559.41 337.94 552.88 330.03 551.21 321.21
  Q 550.36 316.73 551.44 311.33
  Q 552.67 305.14 555.56 299.45
  A 0.63 0.63 0.0 0 0 554.64 298.64
  L 553.85 299.17
  Q 553.39 299.48 552.85 299.36
  C 545.27 297.61 536.79 299.49 529.24 301.39
  Q 519.51 303.84 509.27 306.34
  Q 507.53 306.77 507.38 304.98
  Q 506.77 297.84 505.96 289.74
  Q 505.29 283.18 500.00 279.27
  Q 491.91 273.30 482.12 270.52
  A 0.94 0.94 0.0 0 1 482.39 268.68
  L 484.66 268.69
  A 1.05 1.02 -64.2 0 0 485.32 268.45
  C 488.17 266.16 492.09 262.93 495.91 262.95
  Q 503.79 262.99 511.65 263.34
  C 513.96 263.45 516.31 264.17 518.81 264.25
  C 522.13 264.36 524.98 265.27 528.49 265.55
  C 531.26 265.77 539.81 268.79 535.22 273.20
  Q 527.55 280.56 524.78 286.82
  Q 523.82 289.01 524.78 293.35
  Q 524.89 293.87 525.42 293.82
  Z"
/>
<path fill="#000000" d="
  M 763.68 335.45
  Q 764.75 333.96 766.05 333.59
  Q 772.99 331.64 780.27 331.89
  C 782.47 331.96 784.44 332.93 786.51 333.29
  Q 791.60 334.18 796.97 337.29
  C 799.67 338.86 800.94 340.42 800.75 343.71
  C 800.23 352.91 787.71 360.28 780.11 362.98
  Q 777.84 363.79 775.57 363.25
  C 771.00 362.17 766.47 360.22 763.40 356.60
  Q 755.32 347.06 763.68 335.45
  Z"
/>
<path fill="#000000" d="
  M 452.20 339.45
  C 447.46 349.68 442.65 359.62 436.71 369.22
  C 435.84 370.62 435.48 372.42 434.50 373.82
  A 1.26 1.25 -35.1 0 1 432.26 373.43
  L 427.09 354.43
  A 1.35 1.34 66.0 0 1 427.65 352.96
  Q 435.87 347.57 443.40 340.66
  C 445.22 338.99 447.38 337.97 449.48 336.74
  C 450.94 335.88 451.53 334.64 453.73 334.96
  Q 454.21 335.03 454.18 335.52
  C 454.06 337.33 452.78 338.21 452.20 339.45
  Z"
/>
<path fill="#000000" d="
  M 823.67 405.06
  L 815.28 401.66
  A 1.41 1.41 0.0 0 1 814.52 399.78
  L 818.09 391.67
  A 1.41 1.41 0.0 0 1 819.28 390.83
  L 829.10 390.18
  A 1.41 1.41 0.0 0 1 830.50 392.12
  L 825.50 404.29
  A 1.41 1.41 0.0 0 1 823.67 405.06
  Z"
/>
<path fill="#000000" d="
  M 843.07 478.23
  Q 843.46 471.87 840.61 464.86
  C 836.62 455.02 831.52 445.22 829.24 434.81
  A 0.81 0.81 0.0 0 1 830.18 433.84
  C 833.61 434.47 836.21 432.71 839.30 432.39
  C 842.66 432.05 845.16 431.11 848.60 431.64
  Q 852.53 432.25 854.01 431.72
  Q 856.06 430.99 857.39 431.72
  Q 858.46 432.30 858.10 433.47
  Q 855.45 441.87 851.41 449.24
  Q 849.47 452.77 852.00 457.00
  C 854.81 461.71 857.49 466.28 860.80 470.94
  Q 865.87 478.07 869.49 484.25
  Q 871.15 487.09 868.38 488.11
  A 1.83 1.80 6.6 0 0 867.53 488.77
  L 862.18 496.31
  A 4.35 4.30 10.1 0 1 859.73 498.00
  Q 845.73 501.64 831.10 504.57
  Q 829.91 504.80 828.37 503.37
  Q 825.27 500.50 822.71 497.54
  A 0.80 0.80 0.0 0 1 823.25 496.22
  C 834.69 495.26 831.46 479.21 842.41 478.87
  A 0.68 0.68 0.0 0 0 843.07 478.23
  Z"
/>
<path fill="#000000" d="
  M 908.61 450.36
  Q 910.35 449.08 911.50 449.20
  C 916.71 449.76 914.45 462.30 913.48 465.29
  C 912.75 467.54 908.98 471.96 906.59 468.67
  Q 902.77 463.44 902.15 456.00
  A 1.06 1.03 67.9 0 1 902.50 455.13
  Q 904.47 453.40 908.61 450.36
  Z"
/>
<path fill="#000000" d="
  M 584.52 474.75
  L 547.52 474.22
  A 1.17 1.16 -83.3 0 1 546.40 472.80
  L 549.99 456.82
  Q 550.08 456.41 550.49 456.31
  Q 556.33 454.95 562.22 453.66
  C 564.22 453.22 566.71 451.97 569.39 451.97
  Q 569.85 451.97 570.24 451.73
  Q 572.13 450.54 574.37 450.74
  A 1.45 1.45 0.0 0 0 575.28 450.53
  Q 577.30 449.25 579.66 449.34
  Q 580.24 449.36 580.36 449.93
  L 585.55 473.48
  Q 585.84 474.77 584.52 474.75
  Z"
/>
<path fill="#000000" d="
  M 820.54 455.33
  C 823.88 453.78 827.83 458.50 829.59 461.16
  C 831.40 463.91 831.08 465.60 829.23 468.36
  Q 824.98 474.67 820.85 481.09
  C 819.84 482.66 818.36 483.51 816.37 483.31
  Q 810.96 482.77 805.89 480.79
  Q 805.42 480.60 805.23 480.13
  C 804.14 477.46 807.81 467.09 808.86 464.02
  C 810.65 458.82 816.04 457.41 820.54 455.33
  Z"
/>
<path fill="#000000" d="
  M 905.76 572.69
  A 1.79 1.79 0.0 0 1 907.55 574.49
  L 907.53 580.11
  A 11.13 2.88 -89.8 0 1 904.61 591.23
  L 901.17 591.21
  A 11.13 2.88 -89.8 0 1 898.33 580.07
  L 898.35 574.45
  A 1.79 1.79 0.0 0 1 900.14 572.67
  L 905.76 572.69
  Z"
/>
<path fill="#000000" d="
  M 212.89 595.62
  L 212.65 596.60
  A 0.30 0.30 0.0 0 1 212.06 596.57
  Q 211.84 594.93 212.98 593.76
  Q 213.81 592.90 213.41 594.03
  L 213.08 594.99
  Q 212.97 595.30 212.89 595.62
  Z"
/>
<path fill="#000000" d="
  M 284.58 647.25
  C 284.03 648.50 284.12 649.53 282.57 650.03
  A 1.15 1.15 0.0 0 1 281.08 648.75
  C 282.14 642.14 282.57 634.69 283.54 628.85
  C 284.55 622.75 285.54 616.06 288.05 610.46
  A 1.34 1.33 -72.1 0 1 289.53 609.70
  Q 295.56 610.96 300.62 614.45
  A 0.83 0.81 25.3 0 1 300.94 615.32
  C 300.53 616.85 298.94 618.11 298.31 619.26
  Q 290.81 632.94 284.58 647.25
  Z"
/>
<path fill="#000000" d="
  M 995.64 634.02
  C 992.13 631.83 988.95 630.07 985.71 628.12
  A 1.11 1.10 -23.8 0 1 986.50 626.09
  Q 999.38 628.74 1012.51 627.83
  A 0.80 0.80 0.0 0 1 1012.99 629.30
  Q 1008.08 632.38 1004.13 636.65
  A 0.97 0.96 -63.1 0 1 1003.26 636.94
  Q 999.07 636.16 995.64 634.02
  Z"
/>
<path fill="#000000" d="
  M 359.12 688.99
  A 2.13 2.13 0.0 0 1 356.19 689.66
  L 337.33 677.83
  A 27.35 4.18 32.1 0 1 316.38 659.75
  L 316.79 659.11
  A 27.35 4.18 32.1 0 1 342.18 670.10
  L 361.03 681.93
  A 2.13 2.13 0.0 0 1 361.71 684.87
  L 359.12 688.99
  Z"
/>
<path fill="#000000" d="
  M 384.67 711.50
  Q 380.84 710.46 377.16 708.86
  Q 375.19 707.99 376.46 706.25
  Q 379.54 702.01 383.54 700.14
  Q 385.91 699.03 386.96 700.39
  Q 387.55 701.15 387.54 703.12
  Q 387.52 706.89 387.50 709.37
  Q 387.47 712.27 384.67 711.50
  Z"
/>
<path fill="#000000" d="
  M 1123.41 954.41
  Q 1123.85 953.91 1124.39 951.60
  A 0.79 0.79 0.0 0 1 1125.07 951.00
  L 1126.43 950.86
  A 1.85 1.85 0.0 0 1 1128.39 953.25
  Q 1125.09 963.71 1120.28 973.07
  Q 1104.29 1004.18 1080.29 1032.05
  Q 1073.48 1039.97 1064.55 1034.53
  A 1.18 1.18 0.0 0 1 1064.00 1033.72
  Q 1062.81 1026.61 1065.19 1020.09
  Q 1065.97 1017.95 1068.81 1014.16
  Q 1074.06 1007.16 1076.20 998.50
  C 1077.60 992.85 1077.89 986.20 1083.66 983.14
  Q 1101.83 973.49 1109.48 967.97
  Q 1114.56 964.31 1123.41 954.41
  Z"
/>
<path fill="#000000" d="
  M 389.05 1097.90
  Q 392.91 1099.52 396.03 1100.70
  A 3.23 3.22 3.5 0 1 398.04 1102.97
  C 399.68 1109.81 401.39 1116.14 405.88 1122.09
  C 406.56 1122.99 406.59 1123.76 406.97 1124.69
  Q 407.56 1126.18 406.29 1125.21
  Q 379.87 1104.99 354.97 1082.94
  A 0.44 0.43 59.0 0 1 355.15 1082.19
  Q 355.57 1082.10 355.98 1082.31
  Q 372.18 1090.81 389.05 1097.90
  Z"
/>
</g>
</svg>
