<?xml version="1.0" encoding="UTF-8" standalone="no"?>
<!DOCTYPE svg PUBLIC "-//W3C//DTD SVG 1.1//EN" "http://www.w3.org/Graphics/SVG/1.1/DTD/svg11.dtd">
<svg xmlns="http://www.w3.org/2000/svg" version="1.1" viewBox="0.00 0.00 1773.00 1773.00">
<path fill="#000000" d="
  M 1362.16 1071.99
  Q 1363.01 1072.16 1366.34 1072.79
  Q 1386.83 1076.65 1394.96 1095.74
  Q 1398.20 1103.34 1399.66 1110.69
  Q 1405.20 1138.59 1407.50 1165.60
  Q 1408.32 1175.23 1405.80 1184.70
  C 1399.10 1209.83 1372.99 1212.80 1351.24 1215.91
  Q 1337.69 1217.85 1320.24 1219.86
  Q 1305.85 1221.52 1295.60 1221.90
  Q 1262.95 1223.12 1238.18 1222.39
  Q 1222.62 1221.93 1206.13 1219.77
  C 1193.58 1218.13 1181.70 1215.65 1170.15 1210.67
  C 1148.26 1201.25 1134.86 1185.68 1126.15 1163.76
  A 1.89 1.86 -6.7 0 0 1124.66 1162.60
  C 1115.76 1161.44 1106.88 1159.44 1100.46 1153.35
  Q 1096.93 1150.00 1093.73 1145.68
  C 1093.10 1144.82 1092.05 1144.27 1090.97 1144.59
  Q 980.39 1177.19 867.65 1200.23
  Q 811.15 1211.77 754.00 1219.18
  C 748.77 1219.86 743.90 1220.05 738.88 1218.80
  C 736.17 1218.11 736.03 1215.20 737.98 1213.55
  Q 739.48 1212.28 741.33 1211.28
  Q 783.82 1188.35 825.88 1167.27
  Q 833.48 1163.46 840.61 1161.83
  Q 901.83 1147.84 960.53 1134.30
  Q 970.05 1132.10 979.93 1129.55
  Q 1117.62 1093.92 1254.75 1050.24
  C 1256.88 1049.56 1260.82 1048.13 1260.84 1045.45
  Q 1260.91 1039.03 1258.15 1034.28
  C 1241.03 1004.80 1209.60 1005.95 1180.14 1008.24
  Q 1151.61 1010.46 1126.82 1015.28
  Q 1101.28 1020.24 1067.06 1025.13
  C 1062.10 1025.84 1058.17 1028.26 1053.82 1030.60
  Q 979.06 1070.78 905.63 1112.80
  Q 898.40 1116.94 890.02 1122.27
  C 887.70 1123.74 884.67 1124.58 881.98 1124.97
  Q 867.67 1127.05 854.73 1129.26
  Q 817.98 1135.56 788.35 1140.06
  Q 723.02 1149.99 653.65 1153.45
  Q 622.02 1155.03 589.85 1155.39
  Q 567.67 1155.64 557.68 1154.78
  Q 542.96 1153.53 538.87 1153.40
  Q 491.70 1151.92 442.96 1147.85
  Q 405.79 1144.75 369.12 1138.79
  Q 307.13 1128.70 243.14 1113.59
  Q 235.66 1111.83 228.42 1109.86
  Q 227.50 1109.61 227.15 1108.69
  Q 226.95 1108.17 227.51 1108.15
  Q 232.74 1107.99 237.96 1107.17
  Q 270.10 1102.16 293.79 1097.93
  Q 308.44 1095.31 322.34 1089.92
  C 324.56 1089.06 329.40 1085.13 326.74 1082.32
  Q 323.83 1079.24 319.81 1080.08
  Q 259.79 1092.54 197.95 1102.85
  Q 156.54 1109.75 117.96 1110.21
  Q 86.61 1110.59 64.13 1107.99
  Q 49.51 1106.30 36.20 1101.36
  C 33.10 1100.21 34.32 1096.51 36.22 1094.92
  Q 38.71 1092.83 42.23 1091.58
  C 79.13 1078.41 116.91 1069.65 156.28 1062.36
  Q 157.86 1062.06 159.05 1059.55
  C 161.38 1054.62 163.26 1049.56 166.24 1044.88
  C 177.08 1027.87 194.53 1019.97 213.85 1015.10
  A 1.58 1.57 73.8 0 0 214.96 1013.07
  Q 211.90 1004.00 208.79 996.25
  Q 161.03 877.19 112.20 758.46
  C 110.23 753.68 108.56 748.73 106.89 743.85
  Q 105.99 741.23 108.70 740.66
  C 133.09 735.48 158.49 730.82 183.40 732.95
  C 211.62 735.38 235.71 748.91 249.52 774.11
  A 0.86 0.86 0.0 0 1 248.64 775.37
  Q 244.69 774.78 241.48 772.58
  Q 236.02 768.82 230.10 763.63
  C 219.40 754.25 202.98 748.55 189.39 746.97
  C 184.53 746.41 179.34 746.08 174.29 746.35
  Q 152.76 747.52 131.92 754.73
  C 127.17 756.38 127.45 762.02 131.27 764.26
  Q 134.29 766.03 137.63 765.27
  Q 156.74 760.92 166.96 759.63
  Q 188.80 756.88 204.79 770.99
  Q 212.17 777.50 221.53 787.46
  Q 239.75 806.85 257.31 826.37
  Q 305.73 880.21 355.16 936.28
  Q 371.25 954.53 392.05 973.59
  C 394.01 975.39 396.13 975.41 398.17 976.81
  Q 402.16 979.55 407.31 980.24
  C 409.90 980.59 411.94 979.79 414.60 980.76
  Q 419.21 982.45 423.24 979.11
  Q 423.62 978.79 424.10 978.84
  L 429.23 979.30
  A 0.74 0.70 -56.6 0 0 429.70 979.19
  Q 430.36 978.79 430.82 978.18
  Q 431.18 977.68 431.80 977.60
  Q 432.72 977.47 433.54 977.93
  Q 434.00 978.18 434.50 978.05
  C 436.28 977.56 438.03 978.20 439.81 977.70
  Q 442.78 976.88 445.69 976.42
  C 451.29 975.55 455.04 974.73 459.72 973.72
  A 1.37 1.34 4.8 0 0 460.70 972.91
  Q 461.20 971.68 459.91 971.18
  C 449.72 967.24 439.47 963.45 430.46 957.30
  Q 411.90 944.62 396.58 928.00
  Q 376.13 905.82 360.87 883.95
  Q 359.71 882.30 361.10 880.63
  Q 361.49 880.17 362.08 880.32
  Q 365.05 881.10 367.04 883.06
  Q 386.08 901.91 412.31 922.41
  Q 425.48 932.69 436.04 939.23
  Q 461.99 955.29 490.20 959.92
  Q 506.33 962.56 522.23 959.79
  Q 599.33 946.36 671.46 934.65
  Q 696.63 930.56 717.59 925.47
  A 1.78 1.70 -72.7 0 0 718.35 925.05
  C 719.58 923.86 718.73 922.76 717.68 922.06
  C 661.87 884.82 607.16 845.96 553.81 805.40
  Q 518.33 778.42 490.35 751.99
  C 455.51 719.06 426.62 679.90 401.97 637.99
  A 1.82 1.82 0.0 0 1 402.81 635.40
  Q 404.05 634.86 405.45 634.88
  Q 424.43 635.23 439.37 634.45
  Q 447.83 634.01 453.43 635.69
  C 468.21 640.10 480.81 647.04 494.56 656.89
  Q 512.84 669.98 530.85 682.93
  C 583.75 720.98 640.70 755.23 701.65 786.41
  Q 791.54 832.38 880.70 870.53
  Q 900.74 879.10 922.80 887.36
  C 926.99 888.93 929.98 890.36 934.47 889.10
  C 938.62 887.94 942.50 886.74 946.93 886.01
  Q 980.29 880.57 1009.62 875.72
  Q 1128.12 856.15 1252.54 835.37
  Q 1318.44 824.36 1397.77 812.29
  C 1431.69 807.13 1461.39 802.73 1493.43 799.64
  Q 1499.22 799.07 1504.69 798.91
  C 1509.77 798.76 1514.90 798.47 1520.03 798.62
  Q 1531.91 798.96 1544.55 799.05
  Q 1553.58 799.12 1571.80 802.04
  Q 1588.92 804.79 1602.06 808.21
  C 1629.29 815.31 1654.57 828.85 1677.84 846.55
  C 1684.81 851.86 1694.69 853.98 1702.79 857.37
  C 1715.84 862.83 1728.44 869.43 1739.38 878.41
  C 1753.97 890.41 1760.47 906.89 1754.98 925.67
  Q 1751.59 937.28 1743.97 946.03
  Q 1733.47 958.08 1719.15 967.70
  Q 1686.42 989.70 1648.95 1004.39
  Q 1608.11 1020.40 1562.66 1032.60
  Q 1495.40 1050.66 1427.99 1060.46
  Q 1407.37 1063.46 1386.10 1066.47
  Q 1375.33 1068.00 1362.21 1070.04
  Q 1356.81 1070.88 1362.16 1071.99
  Z
  M 1580.41 855.63
  Q 1583.68 854.08 1587.11 853.17
  Q 1607.43 847.79 1630.78 843.97
  A 1.70 1.70 0.0 0 0 1632.04 841.56
  Q 1631.51 840.45 1630.34 839.90
  Q 1583.76 818.15 1530.97 816.22
  Q 1510.33 815.46 1494.50 817.33
  Q 1452.31 822.32 1398.37 830.62
  Q 1340.38 839.55 1292.63 847.58
  Q 1143.50 872.64 956.25 902.94
  Q 920.90 908.66 898.82 912.60
  Q 852.91 920.77 806.09 929.26
  Q 796.31 931.04 786.40 932.72
  Q 737.10 941.06 685.46 950.41
  Q 662.31 954.60 637.84 958.64
  C 571.75 969.57 504.78 980.83 438.20 993.47
  Q 424.13 996.14 410.45 998.41
  Q 319.16 1013.58 236.41 1028.90
  Q 224.40 1031.13 209.14 1035.85
  Q 190.24 1041.69 182.46 1057.50
  Q 182.28 1057.85 182.38 1058.23
  Q 182.75 1059.76 184.67 1059.67
  Q 201.04 1058.92 218.23 1058.36
  Q 220.55 1058.29 223.00 1058.26
  Q 235.93 1058.11 248.19 1057.84
  Q 272.45 1057.31 297.60 1058.08
  C 300.66 1058.18 304.03 1058.55 307.20 1058.84
  Q 319.25 1059.94 330.64 1063.61
  C 343.78 1067.85 349.70 1075.39 355.76 1087.33
  C 356.94 1089.64 360.88 1089.72 363.08 1089.81
  Q 374.93 1090.27 384.96 1090.83
  C 389.09 1091.06 393.21 1090.94 397.24 1091.19
  C 405.52 1091.70 413.61 1091.76 421.99 1092.02
  Q 446.36 1092.76 484.47 1091.92
  Q 491.78 1091.76 499.61 1091.39
  C 534.41 1089.73 567.55 1086.71 600.45 1081.94
  Q 644.33 1075.58 688.21 1069.28
  Q 698.20 1067.85 708.00 1066.33
  Q 899.55 1036.66 1090.07 1002.84
  Q 1099.70 1001.13 1109.80 999.50
  Q 1177.97 988.46 1247.41 976.91
  C 1278.35 971.76 1309.43 967.48 1340.39 962.48
  Q 1395.37 953.61 1450.39 945.13
  Q 1460.37 943.60 1470.13 941.94
  Q 1502.96 936.36 1568.86 925.79
  Q 1632.88 915.53 1707.18 901.13
  Q 1717.02 899.23 1727.46 898.97
  A 1.62 1.61 -21.6 0 0 1728.63 896.28
  Q 1725.13 892.36 1720.53 889.04
  Q 1703.34 876.63 1681.95 869.91
  C 1680.38 869.41 1678.22 869.01 1676.63 869.52
  C 1664.36 873.43 1652.59 876.56 1639.41 878.13
  Q 1630.15 879.24 1622.60 877.90
  C 1606.97 875.13 1592.82 866.48 1580.29 856.75
  A 0.66 0.66 0.0 0 1 1580.41 855.63
  Z
  M 1386.58 1031.74
  Q 1466.72 1019.90 1545.74 1001.53
  Q 1602.06 988.44 1657.11 967.65
  C 1681.06 958.60 1703.31 947.63 1722.93 932.22
  C 1729.43 927.11 1734.58 922.51 1733.65 913.59
  C 1733.48 911.95 1731.72 910.51 1730.09 911.44
  Q 1729.39 911.84 1728.83 912.35
  Q 1705.40 933.52 1678.12 945.98
  Q 1645.08 961.08 1607.18 972.43
  C 1578.89 980.90 1550.19 988.49 1521.27 994.50
  Q 1492.28 1000.53 1463.51 1006.15
  Q 1426.77 1013.32 1358.25 1024.00
  Q 1353.08 1024.81 1351.85 1028.51
  C 1350.21 1033.47 1354.68 1035.99 1359.00 1035.46
  Q 1373.46 1033.68 1386.58 1031.74
  Z
  M 1364.40 1111.76
  Q 1367.90 1116.61 1368.63 1121.67
  Q 1371.61 1142.14 1374.59 1162.60
  C 1375.22 1166.89 1375.31 1171.39 1374.99 1175.66
  C 1374.23 1185.90 1366.77 1189.67 1359.06 1194.48
  A 1.26 1.25 43.0 0 0 1359.14 1196.65
  Q 1359.79 1197.00 1360.62 1196.97
  C 1372.01 1196.54 1381.09 1193.02 1385.17 1181.92
  Q 1387.41 1175.83 1387.08 1170.41
  C 1386.85 1166.65 1386.56 1162.89 1386.00 1159.19
  Q 1383.21 1140.69 1380.11 1118.28
  C 1378.23 1104.73 1372.43 1090.09 1356.37 1089.95
  Q 1347.54 1089.87 1341.68 1090.83
  Q 1258.43 1104.52 1179.97 1120.98
  Q 1157.64 1125.66 1134.97 1132.19
  A 1.48 1.47 65.9 0 0 1134.13 1134.39
  Q 1137.76 1140.17 1144.63 1143.82
  C 1147.42 1145.30 1148.09 1142.83 1150.67 1142.92
  Q 1154.72 1143.07 1158.86 1142.90
  C 1160.86 1142.82 1163.27 1142.94 1164.16 1140.68
  Q 1164.46 1139.93 1165.26 1140.04
  Q 1165.92 1140.14 1165.92 1140.80
  Q 1165.94 1143.20 1167.79 1144.32
  A 1.42 1.42 0.0 0 0 1169.94 1143.03
  L 1169.87 1141.78
  A 0.89 0.88 13.5 0 1 1171.20 1140.97
  Q 1172.98 1142.02 1173.69 1144.09
  A 1.22 1.21 50.3 0 0 1175.90 1144.30
  Q 1176.89 1142.54 1175.89 1140.55
  Q 1175.58 1139.93 1176.21 1140.21
  Q 1178.81 1141.36 1179.26 1144.07
  Q 1179.45 1145.17 1180.46 1145.52
  A 0.64 0.64 0.0 0 0 1181.31 1144.94
  L 1181.40 1142.19
  Q 1181.43 1141.42 1182.18 1141.27
  Q 1183.97 1140.91 1186.26 1141.03
  Q 1187.00 1141.07 1186.99 1141.80
  Q 1186.97 1142.75 1187.17 1143.65
  Q 1187.38 1144.63 1188.51 1144.60
  A 1.19 1.17 -73.4 0 0 1189.44 1144.09
  Q 1191.18 1141.54 1192.69 1138.85
  C 1193.80 1136.86 1192.04 1136.05 1191.87 1134.29
  Q 1191.86 1134.09 1192.05 1134.06
  L 1192.30 1134.01
  Q 1192.71 1133.93 1192.82 1134.33
  Q 1193.93 1138.35 1194.08 1142.96
  Q 1194.11 1143.75 1194.84 1143.97
  Q 1195.86 1144.29 1196.07 1143.24
  Q 1196.32 1141.96 1195.70 1140.76
  A 1.47 1.47 0.0 0 1 1197.18 1138.62
  L 1202.00 1139.19
  A 1.89 1.89 0.0 0 0 1204.10 1137.14
  Q 1203.83 1134.34 1203.03 1131.74
  Q 1202.96 1131.50 1203.17 1131.39
  Q 1203.46 1131.23 1203.61 1131.52
  Q 1204.82 1133.72 1206.43 1135.19
  Q 1207.15 1135.85 1206.35 1136.40
  Q 1204.44 1137.75 1205.97 1139.53
  A 1.56 1.56 0.0 0 0 1207.67 1139.97
  L 1212.87 1138.05
  A 0.80 0.80 0.0 0 0 1212.76 1136.51
  L 1210.95 1136.11
  Q 1209.95 1135.90 1209.96 1134.88
  L 1209.96 1134.51
  Q 1209.97 1133.49 1210.91 1133.90
  Q 1212.23 1134.49 1212.88 1135.82
  A 1.41 1.40 -30.1 0 0 1214.93 1136.36
  Q 1216.52 1135.28 1218.08 1134.18
  C 1222.25 1131.26 1224.78 1138.47 1227.88 1135.64
  Q 1229.60 1134.06 1228.88 1136.28
  C 1228.33 1137.98 1226.82 1140.58 1227.12 1142.35
  A 1.03 1.03 0.0 0 0 1229.04 1142.67
  L 1231.63 1137.95
  A 3.05 3.02 47.7 0 0 1231.74 1135.26
  C 1230.78 1133.10 1229.55 1131.25 1231.97 1129.34
  Q 1232.56 1128.87 1232.53 1129.62
  Q 1232.33 1134.53 1235.38 1138.83
  A 0.66 0.66 0.0 0 0 1236.19 1139.04
  Q 1238.09 1138.18 1239.58 1136.07
  A 0.98 0.98 0.0 0 0 1238.89 1134.53
  L 1236.68 1134.27
  Q 1236.15 1134.21 1236.07 1133.68
  L 1235.81 1131.84
  Q 1235.57 1130.08 1237.15 1130.88
  Q 1239.38 1131.99 1241.14 1133.94
  C 1241.94 1134.83 1243.27 1134.85 1243.92 1133.76
  Q 1244.29 1133.15 1243.87 1132.56
  Q 1243.46 1131.98 1242.72 1131.69
  Q 1241.86 1131.35 1242.42 1130.61
  L 1244.86 1127.37
  Q 1245.52 1126.49 1246.62 1127.19
  Q 1246.86 1127.35 1246.78 1127.81
  Q 1246.63 1128.59 1245.98 1129.03
  Q 1245.17 1129.58 1244.36 1130.15
  Q 1243.35 1130.86 1243.93 1131.87
  Q 1244.20 1132.31 1244.71 1132.32
  L 1245.76 1132.32
  A 1.08 1.06 72.6 0 1 1246.64 1132.79
  Q 1247.32 1133.79 1246.29 1134.60
  Q 1245.46 1135.26 1244.57 1135.97
  A 1.32 1.32 0.0 0 0 1245.05 1138.28
  C 1248.35 1139.16 1250.25 1132.22 1250.59 1130.20
  Q 1250.62 1130.01 1250.81 1130.02
  L 1251.15 1130.04
  A 0.47 0.47 0.0 0 1 1251.61 1130.52
  C 1251.43 1136.88 1256.41 1137.37 1261.44 1136.59
  Q 1262.78 1136.38 1262.56 1135.04
  L 1262.52 1134.77
  A 0.87 0.87 0.0 0 0 1261.53 1134.05
  L 1256.69 1134.80
  A 0.68 0.68 0.0 0 1 1255.93 1133.95
  Q 1257.13 1129.57 1252.96 1127.91
  C 1251.54 1127.34 1250.80 1125.93 1250.51 1124.52
  Q 1250.21 1123.06 1251.00 1124.32
  C 1252.31 1126.39 1254.95 1129.12 1257.50 1127.17
  Q 1259.28 1125.81 1261.36 1126.43
  Q 1262.07 1126.64 1262.18 1127.37
  L 1262.44 1129.00
  Q 1262.59 1129.95 1261.75 1129.47
  Q 1260.34 1128.66 1258.59 1128.91
  A 0.98 0.98 0.0 0 0 1257.75 1129.86
  C 1257.68 1132.68 1261.50 1133.89 1262.99 1131.46
  A 0.57 0.56 -43.1 0 1 1263.97 1131.49
  L 1265.42 1134.22
  Q 1265.69 1134.71 1266.23 1134.87
  C 1269.58 1135.86 1271.16 1133.31 1271.76 1130.57
  A 0.85 0.84 -0.7 0 0 1270.73 1129.57
  C 1268.81 1130.05 1265.64 1131.02 1264.87 1128.26
  Q 1264.40 1126.55 1264.08 1124.93
  A 2.47 2.41 -73.0 0 0 1263.47 1123.75
  L 1262.51 1122.74
  Q 1262.27 1122.48 1262.55 1122.26
  L 1262.76 1122.10
  A 0.13 0.06 55.8 0 1 1262.88 1122.17
  L 1266.17 1126.88
  A 2.53 2.53 0.0 0 0 1268.28 1127.96
  L 1271.59 1127.92
  Q 1273.69 1127.89 1273.38 1129.96
  Q 1272.72 1134.43 1276.06 1134.55
  Q 1277.24 1134.60 1277.75 1133.57
  Q 1278.02 1133.03 1277.58 1132.62
  Q 1276.17 1131.31 1276.63 1129.31
  Q 1276.75 1128.75 1276.56 1128.20
  Q 1276.29 1127.44 1275.69 1126.89
  Q 1275.17 1126.42 1275.13 1125.71
  L 1274.81 1120.76
  Q 1274.80 1120.69 1274.85 1120.64
  Q 1274.95 1120.52 1275.07 1120.45
  Q 1275.33 1120.30 1275.45 1120.58
  Q 1276.62 1123.50 1277.12 1126.93
  C 1277.53 1129.71 1279.80 1130.63 1282.43 1130.24
  A 0.94 0.94 0.0 0 0 1283.08 1128.78
  Q 1280.59 1125.08 1280.99 1120.32
  Q 1281.06 1119.47 1281.39 1120.25
  C 1281.92 1121.47 1282.15 1122.72 1282.81 1123.88
  Q 1285.13 1127.98 1289.33 1129.67
  A 1.16 1.10 -32.6 0 0 1289.75 1129.75
  Q 1290.86 1129.77 1290.94 1129.12
  Q 1291.01 1128.52 1290.52 1128.18
  Q 1288.12 1126.54 1287.90 1124.11
  Q 1287.79 1122.92 1288.99 1122.89
  L 1289.26 1122.88
  Q 1290.12 1122.86 1290.33 1123.69
  L 1291.30 1127.46
  A 1.54 1.54 0.0 0 0 1294.06 1127.96
  L 1297.08 1123.61
  Q 1297.93 1122.40 1297.59 1123.84
  Q 1296.86 1126.94 1293.37 1129.45
  A 1.03 1.02 -55.7 0 0 1293.71 1131.28
  Q 1296.52 1132.01 1297.18 1129.39
  A 1.80 1.79 -6.6 0 1 1298.09 1128.25
  Q 1299.21 1127.66 1300.51 1127.80
  Q 1301.16 1127.86 1301.57 1127.36
  L 1302.93 1125.73
  Q 1303.57 1124.95 1303.59 1125.96
  L 1303.62 1127.88
  A 0.62 0.62 0.0 0 1 1302.87 1128.49
  L 1301.68 1128.24
  Q 1301.12 1128.11 1300.67 1128.49
  Q 1298.40 1130.39 1298.65 1133.06
  A 1.69 1.69 0.0 0 0 1301.59 1134.02
  L 1302.23 1133.30
  Q 1303.34 1132.06 1303.63 1133.70
  Q 1307.86 1157.80 1311.28 1179.65
  C 1312.44 1187.08 1316.83 1199.75 1326.74 1198.83
  C 1328.70 1198.65 1329.31 1197.02 1328.64 1195.33
  Q 1325.15 1186.65 1323.74 1178.29
  Q 1319.69 1154.29 1315.84 1126.68
  Q 1315.43 1123.69 1315.86 1120.65
  Q 1316.09 1119.06 1317.50 1119.83
  L 1317.91 1120.05
  A 3.10 3.10 0.0 0 1 1319.51 1123.10
  Q 1319.39 1124.26 1319.87 1125.29
  A 0.89 0.88 -50.1 0 0 1321.53 1125.14
  Q 1322.41 1121.79 1321.08 1117.90
  A 1.18 1.18 0.0 0 1 1322.76 1116.48
  Q 1324.02 1117.17 1324.95 1118.26
  Q 1325.93 1119.39 1327.32 1118.82
  Q 1327.90 1118.58 1327.90 1117.52
  A 1.24 1.24 0.0 0 0 1327.50 1116.63
  L 1323.47 1112.98
  Q 1323.27 1112.80 1323.46 1112.60
  L 1323.66 1112.38
  A 0.36 0.36 0.0 0 1 1324.20 1112.40
  C 1326.09 1114.73 1328.55 1115.06 1329.88 1117.91
  A 2.21 2.21 0.0 0 0 1333.67 1118.27
  Q 1334.65 1116.91 1335.82 1115.70
  Q 1336.87 1114.60 1337.97 1115.47
  Q 1338.40 1115.80 1338.24 1116.32
  L 1337.51 1118.64
  A 0.54 0.53 10.1 0 0 1338.00 1119.33
  Q 1340.16 1119.42 1341.51 1118.01
  A 1.02 1.01 38.2 0 1 1342.80 1117.86
  L 1344.62 1119.03
  Q 1347.73 1121.03 1346.24 1117.65
  Q 1343.26 1110.87 1335.36 1110.54
  Q 1335.27 1110.54 1335.28 1110.45
  L 1335.30 1110.18
  Q 1335.33 1109.78 1335.73 1109.82
  C 1339.87 1110.23 1342.30 1112.19 1345.78 1113.88
  C 1347.56 1114.74 1348.75 1116.02 1349.22 1117.97
  Q 1350.06 1121.41 1351.47 1118.17
  Q 1352.84 1115.04 1350.07 1111.07
  Q 1349.31 1109.98 1350.62 1110.19
  C 1353.19 1110.60 1353.72 1113.46 1353.83 1115.62
  A 1.57 1.55 -71.8 0 0 1354.38 1116.72
  Q 1355.21 1117.41 1356.26 1116.99
  Q 1356.73 1116.80 1356.93 1116.33
  Q 1358.59 1112.53 1361.62 1109.77
  A 0.81 0.81 0.0 0 1 1362.58 1109.68
  Q 1362.91 1109.89 1362.93 1110.27
  Q 1362.96 1110.58 1362.66 1110.69
  C 1359.74 1111.74 1361.88 1119.41 1362.68 1120.95
  A 1.07 1.07 0.0 0 0 1364.52 1121.04
  C 1365.81 1119.08 1364.86 1114.52 1364.09 1111.91
  Q 1363.81 1110.93 1364.40 1111.76
  Z
  M 587.62 1130.97
  Q 598.51 1130.70 611.72 1130.59
  C 616.08 1130.55 620.44 1130.10 624.83 1130.04
  Q 629.66 1129.98 634.66 1129.69
  Q 677.76 1127.17 723.92 1121.63
  Q 732.13 1120.65 740.97 1119.00
  Q 744.90 1118.26 745.94 1114.70
  C 748.55 1105.69 733.04 1107.53 728.77 1108.22
  Q 676.73 1116.56 624.20 1118.51
  C 620.53 1118.65 616.79 1119.37 613.05 1119.15
  C 611.92 1119.09 610.72 1119.61 609.57 1119.65
  C 602.25 1119.86 594.95 1120.30 587.53 1120.29
  Q 568.51 1120.27 549.01 1120.27
  C 542.43 1120.27 535.81 1120.80 529.17 1120.51
  C 522.77 1120.23 516.66 1120.25 510.39 1120.25
  C 508.15 1120.26 506.01 1120.69 503.79 1120.92
  C 499.49 1121.35 499.45 1124.76 499.90 1128.01
  C 500.35 1131.31 503.27 1131.82 506.06 1131.82
  Q 522.95 1131.81 539.25 1131.55
  Q 541.52 1131.51 543.75 1131.46
  Q 554.96 1131.24 566.48 1131.24
  Q 577.05 1131.24 587.62 1130.97
  Z
  M 1356.76 1120.00
  A 0.43 0.43 0.0 0 0 1356.81 1120.60
  Q 1357.20 1120.93 1357.66 1120.81
  A 0.51 0.51 0.0 0 0 1357.84 1119.91
  Q 1357.21 1119.45 1356.76 1120.00
  Z
  M 1327.30 1125.93
  C 1328.58 1124.95 1329.70 1123.72 1330.21 1122.26
  A 0.71 0.71 0.0 0 0 1329.82 1121.37
  Q 1328.76 1120.92 1327.52 1121.28
  Q 1326.99 1121.43 1326.76 1121.93
  Q 1325.91 1123.75 1326.20 1125.49
  A 0.69 0.69 0.0 0 0 1327.30 1125.93
  Z
  M 1336.5926 1123.8716
  A 1.51 1.15 -8.7 0 0 1334.9261 1122.9632
  A 1.51 1.15 -8.7 0 0 1333.6074 1124.3284
  A 1.51 1.15 -8.7 0 0 1335.2739 1125.2368
  A 1.51 1.15 -8.7 0 0 1336.5926 1123.8716
  Z
  M 1285.7584 1134.1151
  A 0.75 0.64 104.8 0 0 1286.5688 1133.5535
  A 0.75 0.64 104.8 0 0 1286.1416 1132.6649
  A 0.75 0.64 104.8 0 0 1285.3312 1133.2265
  A 0.75 0.64 104.8 0 0 1285.7584 1134.1151
  Z
  M 1224.4291 1143.0434
  A 5.10 1.59 61.3 0 0 1223.3747 1137.8064
  A 5.10 1.59 61.3 0 0 1219.5309 1134.0966
  A 5.10 1.59 61.3 0 0 1220.5853 1139.3336
  A 5.10 1.59 61.3 0 0 1224.4291 1143.0434
  Z
  M 1296.67 1134.75
  L 1292.04 1135.65
  A 0.29 0.29 0.0 0 0 1291.81 1135.99
  L 1291.87 1136.30
  A 2.37 1.43 -11.0 0 0 1294.47 1137.25
  L 1295.02 1137.15
  A 2.37 1.43 -11.0 0 0 1297.07 1135.29
  L 1297.01 1134.98
  A 0.29 0.29 0.0 0 0 1296.67 1134.75
  Z
  M 1253.04 1137.59
  A 1.52 1.52 0.0 0 0 1251.52 1136.07
  A 1.52 1.52 0.0 0 0 1250.00 1137.59
  A 1.52 1.52 0.0 0 0 1251.52 1139.11
  A 1.52 1.52 0.0 0 0 1253.04 1137.59
  Z
  M 1282.26 1136.99
  A 1.02 1.02 0.0 0 0 1281.24 1135.97
  A 1.02 1.02 0.0 0 0 1280.22 1136.99
  A 1.02 1.02 0.0 0 0 1281.24 1138.01
  A 1.02 1.02 0.0 0 0 1282.26 1136.99
  Z
  M 1301.1661 1137.9026
  A 0.88 0.72 101.4 0 0 1302.0458 1137.1823
  A 0.88 0.72 101.4 0 0 1301.5139 1136.1774
  A 0.88 0.72 101.4 0 0 1300.6342 1136.8977
  A 0.88 0.72 101.4 0 0 1301.1661 1137.9026
  Z
  M 1287.9144 1138.9456
  A 1.32 0.88 69.4 0 0 1288.2737 1137.4004
  A 1.32 0.88 69.4 0 0 1286.9856 1136.4744
  A 1.32 0.88 69.4 0 0 1286.6263 1138.0196
  A 1.32 0.88 69.4 0 0 1287.9144 1138.9456
  Z
  M 1217.04 1143.12
  L 1218.84 1139.60
  A 0.71 0.71 0.0 0 0 1218.53 1138.64
  L 1218.44 1138.59
  A 2.87 2.53 27.1 0 0 1214.73 1139.54
  L 1214.59 1139.82
  A 2.87 2.53 27.1 0 0 1215.99 1143.38
  L 1216.08 1143.43
  A 0.71 0.71 0.0 0 0 1217.04 1143.12
  Z
  M 1207.8127 1145.0301
  A 2.58 1.63 117.9 0 0 1210.4605 1143.5127
  A 2.58 1.63 117.9 0 0 1210.2273 1140.4699
  A 2.58 1.63 117.9 0 0 1207.5795 1141.9873
  A 2.58 1.63 117.9 0 0 1207.8127 1145.0301
  Z
  M 1203.9104 1140.8668
  A 2.84 1.45 -42.9 0 0 1200.8430 1141.7378
  A 2.84 1.45 -42.9 0 0 1199.7496 1144.7332
  A 2.84 1.45 -42.9 0 0 1202.8170 1143.8622
  A 2.84 1.45 -42.9 0 0 1203.9104 1140.8668
  Z
  M 1243.8829 1141.2041
  A 1.96 1.32 -37.6 0 0 1241.5246 1141.3542
  A 1.96 1.32 -37.6 0 0 1240.7771 1143.5959
  A 1.96 1.32 -37.6 0 0 1243.1354 1143.4458
  A 1.96 1.32 -37.6 0 0 1243.8829 1141.2041
  Z
  M 1237.01 1141.94
  A 0.36 0.36 0.0 0 0 1237.36 1142.37
  Q 1237.78 1142.38 1238.01 1142.07
  A 0.40 0.40 0.0 0 0 1237.71 1141.44
  Q 1237.11 1141.40 1237.01 1141.94
  Z
  M 1157.1283 1146.9657
  A 4.28 1.22 8.0 0 0 1153.0598 1145.1619
  A 4.28 1.22 8.0 0 0 1148.6517 1145.7743
  A 4.28 1.22 8.0 0 0 1152.7202 1147.5781
  A 4.28 1.22 8.0 0 0 1157.1283 1146.9657
  Z
  M 1162.2499 1145.9245
  A 1.26 0.94 -14.5 0 0 1160.7946 1145.3299
  A 1.26 0.94 -14.5 0 0 1159.8101 1146.5555
  A 1.26 0.94 -14.5 0 0 1161.2654 1147.1501
  A 1.26 0.94 -14.5 0 0 1162.2499 1145.9245
  Z"
/>
<path fill="#000000" d="
  M 1540.8924 899.9479
  A 24.55 24.55 0.0 0 1 1520.5833 928.1072
  L 1513.1403 929.3127
  A 24.55 24.55 0.0 0 1 1484.9810 909.0036
  L 1479.4076 874.5921
  A 24.55 24.55 0.0 0 1 1499.7167 846.4328
  L 1507.1597 845.2273
  A 24.55 24.55 0.0 0 1 1535.3190 865.5364
  L 1540.8924 899.9479
  Z
  M 1523.5175 869.0037
  A 14.43 14.43 0.0 0 0 1506.8419 857.2404
  L 1503.7872 857.7681
  A 14.43 14.43 0.0 0 0 1492.0239 874.4436
  L 1497.2425 904.6563
  A 14.43 14.43 0.0 0 0 1513.9181 916.4196
  L 1516.9728 915.8919
  A 14.43 14.43 0.0 0 0 1528.7361 899.2164
  L 1523.5175 869.0037
  Z"
/>
<ellipse fill="#000000" cx="0.00" cy="0.00" transform="translate(1426.66,905.02) rotate(80.6)" rx="13.83" ry="11.75"/>
<ellipse fill="#000000" cx="0.00" cy="0.00" transform="translate(1386.33,911.73) rotate(81.2)" rx="14.11" ry="11.53"/>
<rect fill="#000000" x="-11.12" y="-13.26" transform="translate(1345.53,918.57) rotate(-6.2)" width="22.24" height="26.52" rx="10.28"/>
<ellipse fill="#000000" cx="0.00" cy="0.00" transform="translate(1301.82,925.37) rotate(71.5)" rx="13.07" ry="11.87"/>
<ellipse fill="#000000" cx="0.00" cy="0.00" transform="translate(1234.32,936.83) rotate(78.1)" rx="13.70" ry="12.04"/>
<ellipse fill="#000000" cx="0.00" cy="0.00" transform="translate(1194.61,943.47) rotate(81.8)" rx="13.78" ry="11.64"/>
<ellipse fill="#000000" cx="0.00" cy="0.00" transform="translate(1154.51,950.52) rotate(78.0)" rx="14.17" ry="11.74"/>
<ellipse fill="#000000" cx="0.00" cy="0.00" transform="translate(1111.95,957.15) rotate(83.2)" rx="14.10" ry="11.63"/>
<ellipse fill="#000000" cx="0.00" cy="0.00" transform="translate(1075.15,963.80) rotate(79.8)" rx="14.66" ry="11.11"/>
<ellipse fill="#000000" cx="0.00" cy="0.00" transform="translate(1039.38,969.91) rotate(80.0)" rx="14.80" ry="10.97"/>
<rect fill="#000000" x="-10.39" y="-14.37" transform="translate(1003.77,976.02) rotate(-8.7)" width="20.78" height="28.74" rx="9.71"/>
<ellipse fill="#000000" cx="0.00" cy="0.00" transform="translate(968.19,982.48) rotate(82.5)" rx="15.09" ry="11.08"/>
<ellipse fill="#000000" cx="0.00" cy="0.00" transform="translate(932.99,988.17) rotate(81.3)" rx="14.96" ry="10.81"/>
<rect fill="#000000" x="-10.23" y="-14.65" transform="translate(898.30,993.92) rotate(-9.4)" width="20.46" height="29.30" rx="9.60"/>
<ellipse fill="#000000" cx="0.00" cy="0.00" transform="translate(863.51,1000.22) rotate(81.5)" rx="14.96" ry="11.05"/>
<ellipse fill="#000000" cx="0.00" cy="0.00" transform="translate(828.38,1006.14) rotate(80.8)" rx="14.71" ry="10.99"/>
<ellipse fill="#000000" cx="0.00" cy="0.00" transform="translate(792.56,1012.46) rotate(82.5)" rx="14.64" ry="11.18"/>
<ellipse fill="#000000" cx="0.00" cy="0.00" transform="translate(756.00,1018.44) rotate(81.5)" rx="14.86" ry="11.04"/>
<ellipse fill="#000000" cx="0.00" cy="0.00" transform="translate(719.76,1024.12) rotate(80.8)" rx="14.57" ry="11.21"/>
<ellipse fill="#000000" cx="0.00" cy="0.00" transform="translate(683.66,1029.59) rotate(79.1)" rx="14.24" ry="11.01"/>
<path fill="#000000" d="
  M 528.1595 1055.7286
  A 16.85 16.85 0.0 0 1 514.2203 1075.0559
  L 503.7961 1076.7442
  A 16.85 16.85 0.0 0 1 484.4689 1062.8050
  L 480.6605 1039.2914
  A 16.85 16.85 0.0 0 1 494.5997 1019.9641
  L 505.0239 1018.2758
  A 16.85 16.85 0.0 0 1 524.3511 1032.2150
  L 528.1595 1055.7286
  Z
  M 513.9368 1037.2572
  A 8.77 8.77 0.0 0 0 503.8271 1030.0725
  L 499.4295 1030.8163
  A 8.77 8.77 0.0 0 0 492.2449 1040.9261
  L 494.9032 1056.6428
  A 8.77 8.77 0.0 0 0 505.0129 1063.8275
  L 509.4105 1063.0837
  A 8.77 8.77 0.0 0 0 516.5951 1052.9739
  L 513.9368 1037.2572
  Z"
/>
<ellipse fill="#000000" cx="0.00" cy="0.00" transform="translate(647.01,1035.79) rotate(80.2)" rx="14.22" ry="11.23"/>
<ellipse fill="#000000" cx="0.00" cy="0.00" transform="translate(1217.38,1024.02) rotate(2.0)" rx="1.31" ry="1.07"/>
<path fill="#000000" d="
  M 1096.22 1083.91
  Q 1094.59 1080.72 1092.22 1078.26
  Q 1092.06 1078.09 1092.20 1077.91
  Q 1092.39 1077.65 1092.66 1077.83
  Q 1095.46 1079.73 1097.60 1082.77
  Q 1098.52 1084.07 1099.87 1083.35
  Q 1100.35 1083.09 1100.20 1082.57
  C 1099.56 1080.40 1100.71 1077.15 1103.59 1078.06
  Q 1105.32 1078.60 1106.83 1079.42
  Q 1107.24 1079.64 1107.66 1079.46
  Q 1108.64 1079.05 1108.80 1078.06
  A 1.23 1.21 -63.6 0 0 1108.46 1077.02
  L 1105.31 1073.82
  A 1.64 1.64 0.0 0 1 1105.01 1071.93
  Q 1105.39 1071.19 1106.11 1071.10
  Q 1106.80 1071.01 1106.58 1071.67
  Q 1105.77 1074.14 1108.12 1074.91
  C 1108.89 1075.16 1109.75 1074.90 1110.55 1074.93
  Q 1111.05 1074.94 1111.38 1075.32
  Q 1112.37 1076.48 1112.80 1078.00
  Q 1113.24 1079.53 1114.73 1078.98
  L 1115.12 1078.83
  Q 1116.45 1078.33 1115.83 1077.06
  C 1114.63 1074.63 1113.01 1070.55 1110.45 1069.46
  Q 1110.18 1069.34 1110.33 1069.08
  L 1110.48 1068.82
  Q 1110.53 1068.72 1110.64 1068.75
  Q 1113.92 1069.66 1114.52 1073.38
  A 1.30 1.30 0.0 0 0 1116.93 1073.83
  L 1118.00 1071.99
  A 0.78 0.77 -59.7 0 1 1119.04 1071.71
  L 1123.21 1074.02
  Q 1123.89 1074.39 1124.65 1074.48
  Q 1125.83 1074.63 1125.95 1074.15
  Q 1126.27 1072.89 1125.14 1072.27
  Q 1122.81 1070.97 1122.47 1068.70
  Q 1122.20 1066.93 1123.30 1068.35
  C 1125.76 1071.53 1127.27 1071.44 1130.15 1068.86
  A 1.25 1.24 -23.3 0 1 1132.22 1069.68
  C 1132.32 1070.86 1133.18 1072.70 1134.64 1072.41
  Q 1135.07 1072.32 1135.31 1071.97
  A 0.74 0.72 -45.2 0 0 1135.32 1071.14
  Q 1133.49 1068.37 1135.11 1064.88
  Q 1135.51 1064.03 1136.40 1063.84
  Q 1137.16 1063.68 1136.72 1064.32
  Q 1136.19 1065.09 1136.38 1065.91
  Q 1136.72 1067.37 1138.15 1066.95
  Q 1143.42 1065.41 1143.02 1060.63
  C 1142.83 1058.35 1139.53 1058.62 1138.05 1058.81
  Q 1137.58 1058.86 1137.63 1058.39
  L 1137.66 1058.07
  Q 1137.68 1057.84 1137.90 1057.87
  Q 1141.38 1058.41 1144.36 1057.70
  Q 1146.10 1057.28 1145.32 1058.89
  C 1144.03 1061.58 1145.91 1063.71 1148.64 1063.77
  A 0.97 0.97 0.0 0 0 1149.49 1062.29
  Q 1148.39 1060.49 1147.95 1058.40
  Q 1147.60 1056.74 1148.76 1057.98
  Q 1149.94 1059.25 1150.46 1060.87
  A 1.41 1.38 -84.9 0 0 1151.08 1061.63
  Q 1152.20 1062.30 1153.52 1061.81
  Q 1154.09 1061.59 1154.10 1060.98
  Q 1154.11 1059.53 1153.43 1058.16
  Q 1153.22 1057.74 1153.68 1057.67
  Q 1154.31 1057.57 1154.80 1058.01
  Q 1156.92 1059.90 1158.88 1061.64
  A 1.40 1.36 -19.2 0 0 1159.61 1061.98
  Q 1160.64 1062.11 1161.06 1061.60
  A 0.86 0.86 0.0 0 0 1160.97 1060.41
  Q 1159.21 1058.85 1160.55 1056.97
  A 1.03 1.03 0.0 0 0 1160.58 1055.81
  L 1159.11 1053.55
  A 0.60 0.60 0.0 0 1 1159.15 1052.84
  L 1159.30 1052.64
  Q 1159.45 1052.47 1159.61 1052.62
  L 1163.26 1056.19
  Q 1164.47 1057.36 1166.14 1057.17
  Q 1167.46 1057.02 1168.58 1056.63
  Q 1170.05 1056.11 1169.05 1054.91
  Q 1166.36 1051.67 1162.92 1049.12
  Q 1162.21 1048.60 1163.09 1048.56
  C 1167.26 1048.38 1166.77 1051.72 1169.74 1053.05
  Q 1171.47 1053.83 1173.07 1055.00
  A 0.73 0.73 0.0 0 0 1174.22 1054.47
  Q 1174.34 1053.12 1173.56 1051.96
  Q 1173.25 1051.50 1173.65 1051.12
  Q 1175.52 1049.37 1177.93 1048.86
  Q 1178.65 1048.71 1178.99 1048.05
  L 1181.50 1043.14
  Q 1181.81 1042.53 1181.47 1041.95
  L 1180.76 1040.70
  Q 1180.35 1039.99 1181.15 1040.20
  Q 1182.61 1040.60 1183.63 1041.75
  Q 1184.06 1042.23 1183.59 1042.68
  C 1181.78 1044.41 1180.55 1047.32 1181.47 1049.74
  A 1.87 1.87 0.0 0 0 1183.51 1050.92
  L 1183.98 1050.85
  Q 1185.82 1050.56 1185.04 1048.86
  L 1184.50 1047.69
  A 0.58 0.58 0.0 0 1 1184.91 1046.88
  L 1185.99 1046.66
  A 0.81 0.80 -13.3 0 0 1186.60 1045.68
  L 1186.07 1043.62
  Q 1185.73 1042.31 1186.93 1042.95
  Q 1189.30 1044.21 1190.21 1046.92
  Q 1190.40 1047.51 1190.99 1047.67
  A 1.04 1.04 0.0 0 0 1192.26 1046.99
  C 1192.84 1045.23 1192.85 1043.17 1191.42 1041.83
  Q 1189.39 1039.95 1187.76 1037.64
  C 1187.02 1036.60 1185.91 1035.93 1184.96 1035.09
  Q 1184.28 1034.49 1185.16 1034.69
  Q 1187.21 1035.15 1188.52 1036.63
  Q 1190.45 1038.80 1192.68 1040.70
  C 1194.64 1042.36 1193.96 1044.79 1194.19 1047.04
  A 0.80 0.80 0.0 0 0 1195.55 1047.53
  C 1200.06 1043.15 1195.22 1039.79 1194.39 1035.54
  Q 1194.29 1035.01 1194.82 1035.14
  C 1199.67 1036.37 1196.01 1040.67 1200.04 1042.17
  A 0.99 0.98 -86.3 0 0 1201.34 1041.02
  Q 1200.82 1038.74 1202.82 1037.03
  A 1.15 1.15 0.0 0 0 1202.20 1035.01
  L 1200.72 1034.85
  A 0.60 0.60 0.0 0 1 1200.37 1033.82
  L 1201.59 1032.65
  Q 1201.97 1032.29 1201.99 1031.76
  C 1202.12 1028.90 1205.63 1029.02 1207.27 1030.36
  Q 1208.52 1031.39 1210.13 1031.56
  Q 1210.62 1031.61 1210.91 1032.00
  Q 1213.14 1035.09 1216.63 1037.08
  A 1.61 1.51 -28.3 0 0 1217.42 1037.29
  Q 1218.80 1037.31 1218.92 1036.26
  Q 1219.00 1035.58 1218.49 1035.12
  C 1216.74 1033.55 1214.57 1030.50 1212.16 1030.21
  Q 1211.54 1030.13 1211.89 1029.62
  Q 1212.18 1029.19 1212.66 1029.10
  Q 1213.23 1028.99 1213.73 1029.31
  Q 1215.53 1030.49 1217.18 1029.37
  A 1.09 1.09 0.0 0 1 1218.40 1029.37
  Q 1220.49 1030.78 1222.70 1031.97
  C 1225.26 1033.34 1227.11 1030.58 1227.60 1028.50
  A 1.18 1.18 0.0 0 0 1226.63 1027.06
  Q 1225.24 1026.85 1224.87 1028.40
  A 1.41 1.31 -47.0 0 0 1224.87 1029.01
  Q 1225.06 1029.88 1224.33 1030.26
  Q 1223.02 1030.94 1222.91 1029.47
  Q 1222.73 1027.11 1223.69 1026.00
  Q 1224.28 1025.31 1225.15 1025.59
  Q 1238.91 1029.98 1247.25 1038.90
  A 0.76 0.76 0.0 0 1 1247.02 1040.11
  Q 1245.89 1040.63 1244.78 1040.98
  C 1223.30 1047.67 1203.14 1054.16 1182.39 1060.33
  C 1161.23 1066.62 1140.17 1073.40 1118.97 1079.67
  Q 1090.16 1088.19 1060.88 1096.34
  Q 1057.62 1097.25 1054.70 1098.28
  Q 1053.51 1098.70 1054.21 1097.65
  Q 1055.27 1096.05 1054.99 1094.05
  Q 1054.88 1093.29 1055.57 1093.63
  C 1056.35 1094.01 1056.88 1094.73 1057.74 1094.92
  Q 1059.28 1095.27 1060.64 1094.62
  A 0.77 0.77 0.0 0 0 1061.05 1093.74
  Q 1060.43 1091.16 1060.88 1088.37
  A 0.44 0.43 16.5 0 1 1061.48 1088.05
  L 1061.82 1088.20
  Q 1062.03 1088.30 1062.02 1088.53
  L 1061.87 1092.51
  Q 1061.79 1094.61 1063.88 1094.41
  Q 1066.44 1094.16 1065.85 1091.81
  Q 1065.57 1090.69 1066.68 1090.96
  Q 1067.66 1091.20 1068.44 1091.90
  A 2.27 2.27 0.0 0 0 1071.36 1091.99
  Q 1072.61 1091.01 1071.78 1089.97
  Q 1070.99 1088.98 1072.25 1089.15
  Q 1074.68 1089.48 1077.13 1090.31
  C 1078.03 1090.62 1078.89 1090.29 1079.28 1089.40
  Q 1079.47 1088.95 1079.12 1088.62
  Q 1078.28 1087.83 1077.03 1087.66
  Q 1076.35 1087.57 1076.38 1086.89
  L 1076.39 1086.52
  A 0.42 0.42 0.0 0 1 1076.91 1086.12
  Q 1079.18 1086.63 1080.65 1088.25
  A 2.31 2.31 0.0 0 0 1082.74 1088.97
  Q 1084.00 1088.75 1084.21 1087.55
  A 1.24 1.22 -58.6 0 0 1083.99 1086.61
  L 1082.84 1085.06
  A 0.79 0.78 72.3 0 1 1083.48 1083.81
  Q 1085.70 1083.84 1086.56 1086.01
  A 1.24 1.21 -1.4 0 0 1087.33 1086.73
  Q 1089.05 1087.29 1090.84 1085.89
  Q 1091.92 1085.05 1091.02 1084.03
  L 1089.31 1082.08
  A 0.69 0.68 -34.6 0 1 1089.51 1081.02
  Q 1090.06 1080.72 1090.59 1081.06
  Q 1092.95 1082.55 1094.87 1084.14
  Q 1095.15 1084.38 1095.52 1084.47
  Q 1095.75 1084.53 1095.98 1084.46
  A 0.39 0.39 0.0 0 0 1096.22 1083.91
  Z
  M 1208.14 1037.04
  Q 1207.12 1038.37 1207.34 1039.78
  Q 1207.63 1041.68 1209.36 1040.84
  C 1214.01 1038.58 1212.78 1033.24 1208.33 1032.19
  C 1207.08 1031.89 1206.30 1031.26 1205.27 1030.57
  A 1.88 1.87 -62.8 0 0 1202.45 1031.48
  Q 1201.71 1033.49 1203.08 1034.76
  Q 1203.46 1035.12 1203.99 1035.12
  L 1207.19 1035.12
  A 1.20 1.19 18.7 0 1 1208.14 1037.04
  Z
  M 1204.1231 1041.7799
  A 2.12 1.35 95.6 0 0 1205.6736 1039.8017
  A 2.12 1.35 95.6 0 0 1204.5369 1037.5601
  A 2.12 1.35 95.6 0 0 1202.9864 1039.5383
  A 2.12 1.35 95.6 0 0 1204.1231 1041.7799
  Z
  M 1177.0153 1054.2435
  A 2.11 1.43 113.6 0 0 1179.1704 1052.8825
  A 2.11 1.43 113.6 0 0 1178.7047 1050.3765
  A 2.11 1.43 113.6 0 0 1176.5496 1051.7375
  A 2.11 1.43 113.6 0 0 1177.0153 1054.2435
  Z
  M 1146.15 1065.74
  L 1145.44 1063.85
  Q 1145.15 1063.09 1144.57 1063.65
  C 1143.70 1064.49 1143.70 1065.96 1144.69 1066.70
  Q 1148.04 1069.18 1151.60 1066.75
  Q 1152.59 1066.07 1152.49 1065.00
  A 1.01 1.01 0.0 0 0 1150.75 1064.40
  Q 1148.96 1066.30 1146.77 1066.19
  Q 1146.31 1066.17 1146.15 1065.74
  Z
  M 1157.40 1064.87
  A 1.08 1.08 0.0 0 0 1156.32 1063.79
  A 1.08 1.08 0.0 0 0 1155.24 1064.87
  A 1.08 1.08 0.0 0 0 1156.32 1065.95
  A 1.08 1.08 0.0 0 0 1157.40 1064.87
  Z
  M 1143.6581 1068.9268
  A 2.69 1.27 -5.4 0 0 1140.8605 1067.9156
  A 2.69 1.27 -5.4 0 0 1138.3019 1069.4332
  A 2.69 1.27 -5.4 0 0 1141.0995 1070.4444
  A 2.69 1.27 -5.4 0 0 1143.6581 1068.9268
  Z
  M 1129.0974 1074.7123
  A 1.51 1.22 95.8 0 0 1130.4638 1073.3333
  A 1.51 1.22 95.8 0 0 1129.4026 1071.7077
  A 1.51 1.22 95.8 0 0 1128.0362 1073.0867
  A 1.51 1.22 95.8 0 0 1129.0974 1074.7123
  Z
  M 1117.60 1077.27
  L 1121.21 1076.87
  A 0.42 0.42 0.0 0 0 1121.59 1076.41
  L 1121.56 1076.21
  A 2.12 2.02 -6.3 0 0 1119.23 1074.43
  L 1119.00 1074.46
  A 2.12 2.02 -6.3 0 0 1117.11 1076.70
  L 1117.13 1076.90
  A 0.42 0.42 0.0 0 0 1117.60 1077.27
  Z
  M 1102.7028 1082.8631
  A 2.04 1.63 94.7 0 0 1104.4945 1080.9636
  A 2.04 1.63 94.7 0 0 1103.0372 1078.7969
  A 2.04 1.63 94.7 0 0 1101.2455 1080.6964
  A 2.04 1.63 94.7 0 0 1102.7028 1082.8631
  Z"
/>
<ellipse fill="#000000" cx="0.00" cy="0.00" transform="translate(608.87,1041.39) rotate(78.6)" rx="14.18" ry="11.04"/>
<ellipse fill="#000000" cx="0.00" cy="0.00" transform="translate(1196.29,1031.73) rotate(3.4)" rx="0.93" ry="0.63"/>
<ellipse fill="#000000" cx="0.00" cy="0.00" transform="translate(569.50,1047.32) rotate(82.3)" rx="13.77" ry="11.10"/>
<path fill="#000000" d="
  M 1165.19 1042.89
  Q 1165.74 1042.67 1166.31 1043.02
  A 0.30 0.29 -41.0 0 1 1166.27 1043.54
  Q 1165.74 1043.77 1165.17 1043.50
  A 0.33 0.33 0.0 0 1 1165.19 1042.89
  Z"
/>
<ellipse fill="#000000" cx="0.00" cy="0.00" transform="translate(456.07,1059.14) rotate(82.5)" rx="14.12" ry="11.54"/>
<path fill="#000000" d="
  M 1171.27 1045.75
  Q 1171.37 1045.78 1171.37 1045.89
  Q 1171.38 1046.05 1171.25 1045.95
  Q 1171.19 1045.90 1171.17 1045.83
  Q 1171.15 1045.70 1171.27 1045.75
  Z"
/>
<path fill="#000000" d="
  M 1152.98 1054.02
  Q 1153.01 1054.01 1153.04 1054.00
  Q 1153.10 1053.99 1153.04 1054.02
  Q 1153.00 1054.04 1152.97 1054.08
  Q 1152.92 1054.14 1152.91 1054.06
  Q 1152.90 1053.94 1152.82 1053.84
  Q 1152.75 1053.74 1152.87 1053.77
  Q 1152.98 1053.81 1153.06 1053.88
  Q 1153.11 1053.92 1153.06 1053.96
  Q 1153.02 1054.00 1152.98 1054.01
  Q 1152.89 1054.05 1152.98 1054.02
  Z"
/>
<path fill="#000000" d="
  M 1121.50 1062.53
  Q 1121.71 1062.47 1121.92 1062.49
  Q 1122.91 1062.60 1122.13 1063.23
  Q 1121.94 1063.37 1121.49 1063.21
  A 0.36 0.36 0.0 0 1 1121.50 1062.53
  Z"
/>
<path fill="#000000" d="
  M 1138.34 1062.83
  Q 1138.59 1062.70 1138.88 1062.71
  Q 1139.19 1062.73 1139.00 1062.97
  Q 1138.79 1063.25 1138.43 1063.25
  Q 1137.52 1063.24 1138.34 1062.83
  Z"
/>
<ellipse fill="#000000" cx="0.00" cy="0.00" transform="translate(1116.70,1067.36) rotate(53.0)" rx="0.99" ry="0.42"/>
<ellipse fill="#000000" cx="0.00" cy="0.00" transform="translate(1085.47,1079.30) rotate(85.5)" rx="1.23" ry="0.66"/>
<path fill="#000000" d="
  M 1049.37 1096.15
  L 1048.97 1095.84
  Q 1048.58 1095.53 1048.47 1095.05
  Q 1048.36 1094.58 1048.59 1094.42
  Q 1048.98 1094.15 1049.20 1094.57
  L 1050.98 1097.94
  A 0.81 0.81 0.0 0 1 1050.55 1099.07
  Q 1047.90 1100.09 1045.61 1100.56
  Q 1042.20 1101.26 1045.40 1099.90
  Q 1047.20 1099.13 1049.10 1098.30
  A 1.26 1.26 0.0 0 0 1049.37 1096.15
  Z"
/>
<path fill="#000000" d="
  M 1041.45 1101.42
  Q 1038.64 1102.98 1036.58 1102.70
  Q 1035.57 1102.56 1036.54 1102.25
  Q 1039.21 1101.40 1041.64 1101.40
  Q 1041.75 1101.40 1041.69 1101.39
  Q 1041.58 1101.37 1041.66 1101.37
  Q 1041.70 1101.37 1041.55 1101.39
  Q 1041.50 1101.39 1041.45 1101.42
  Z"
/>
<path fill="#000000" d="
  M 1032.55 1104.12
  Q 1030.58 1105.17 1028.34 1105.37
  Q 1027.89 1105.41 1027.81 1104.97
  Q 1027.78 1104.84 1027.81 1104.71
  A 0.31 0.31 0.0 0 1 1028.01 1104.47
  Q 1030.21 1103.68 1032.46 1103.76
  Q 1033.18 1103.79 1032.55 1104.12
  Z"
/>
<ellipse fill="#000000" cx="0.00" cy="0.00" transform="translate(1023.32,1106.62) rotate(-10.6)" rx="1.51" ry="0.50"/>
<path fill="#000000" d="
  M 1016.80 1108.13
  A 0.44 0.44 0.0 0 1 1017.45 1108.49
  Q 1017.46 1108.69 1017.33 1108.85
  Q 1017.11 1109.15 1016.74 1109.05
  A 0.40 0.40 0.0 0 1 1016.46 1108.60
  Q 1016.51 1108.29 1016.80 1108.13
  Z"
/>
<path fill="#000000" d="
  M 1345.36 1108.59
  A 1.04 1.03 25.5 0 1 1346.00 1108.37
  Q 1346.60 1108.37 1347.00 1108.77
  Q 1347.49 1109.25 1346.93 1109.64
  Q 1346.26 1110.10 1345.41 1110.27
  Q 1344.90 1110.38 1344.80 1109.87
  Q 1344.67 1109.13 1345.36 1108.59
  Z"
/>
<ellipse fill="#000000" cx="0.00" cy="0.00" transform="translate(1356.09,1109.34) rotate(76.9)" rx="0.64" ry="0.44"/>
<ellipse fill="#000000" cx="0.00" cy="0.00" transform="translate(1011.08,1110.64) rotate(-20.5)" rx="0.62" ry="0.50"/>
<ellipse fill="#000000" cx="0.00" cy="0.00" transform="translate(1331.40,1113.78) rotate(47.0)" rx="1.77" ry="0.72"/>
<ellipse fill="#000000" cx="0.00" cy="0.00" transform="translate(995.64,1114.70) rotate(-26.6)" rx="2.46" ry="0.32"/>
<ellipse fill="#000000" cx="0.00" cy="0.00" transform="translate(1317.37,1114.98) rotate(24.0)" rx="1.52" ry="1.14"/>
<path fill="#000000" d="
  M 1341.05 1116.50
  L 1339.60 1115.88
  Q 1338.91 1115.59 1339.54 1115.18
  Q 1339.78 1115.02 1340.06 1115.00
  Q 1341.47 1114.87 1341.41 1116.28
  A 0.26 0.26 0.0 0 1 1341.05 1116.50
  Z"
/>
<ellipse fill="#000000" cx="0.00" cy="0.00" transform="translate(1287.92,1119.26) rotate(37.9)" rx="1.15" ry="0.73"/>
<path fill="#000000" d="
  M 1299.76 1119.89
  Q 1299.67 1120.40 1299.15 1120.50
  Q 1298.68 1120.60 1299.02 1120.26
  L 1299.51 1119.76
  Q 1299.85 1119.41 1299.76 1119.89
  Z"
/>
<ellipse fill="#000000" cx="0.00" cy="0.00" transform="translate(1270.19,1122.18) rotate(63.1)" rx="2.12" ry="0.54"/>
<ellipse fill="#000000" cx="0.00" cy="0.00" transform="translate(1256.80,1122.09) rotate(54.5)" rx="0.95" ry="0.53"/>
<ellipse fill="#000000" cx="0.00" cy="0.00" transform="translate(1231.48,1125.47) rotate(51.5)" rx="0.87" ry="0.46"/>
<ellipse fill="#000000" cx="0.00" cy="0.00" transform="translate(1239.14,1127.17) rotate(71.6)" rx="1.22" ry="0.73"/>
<path fill="#000000" d="
  M 1225.74 1132.28
  A 0.25 0.25 0.0 0 1 1225.47 1132.05
  L 1225.44 1131.72
  A 3.86 0.63 85.4 0 1 1225.76 1127.82
  L 1226.08 1127.79
  A 3.86 0.63 85.4 0 1 1227.02 1131.59
  L 1227.05 1131.92
  A 0.25 0.25 0.0 0 1 1226.82 1132.19
  L 1225.74 1132.28
  Z"
/>
<ellipse fill="#000000" cx="0.00" cy="0.00" transform="translate(1217.14,1128.95) rotate(-14.9)" rx="1.17" ry="0.54"/>
<ellipse fill="#000000" cx="0.00" cy="0.00" transform="translate(1197.87,1134.92) rotate(59.8)" rx="1.10" ry="0.93"/>
<rect fill="#000000" x="-1.00" y="-1.49" transform="translate(1181.97,1136.72) rotate(-3.9)" width="2.00" height="2.98" rx="0.91"/>
<ellipse fill="#000000" cx="0.00" cy="0.00" transform="translate(1187.77,1137.25) rotate(44.2)" rx="1.62" ry="0.70"/>
<ellipse fill="#000000" cx="0.00" cy="0.00" transform="translate(1156.11,1137.46) rotate(10.7)" rx="0.86" ry="0.38"/>
<ellipse fill="#000000" cx="0.00" cy="0.00" transform="translate(1173.77,1137.56) rotate(43.4)" rx="0.48" ry="0.29"/>
</svg>
